<svg id="ngay_cuoi" xmlns="http://www.w3.org/2000/svg" width="141.01" height="16.12" viewBox="0 0 141.01 16.12"><path d="M3.11,17.31a3.37,3.37,0,0,1-1.78-.41,2.45,2.45,0,0,1-.94-1,2.78,2.78,0,0,1-.28-1.17,2.68,2.68,0,0,1,.16-.93A1.87,1.87,0,0,1,.77,13a1.17,1.17,0,0,1,.82-.3h.17l.16,0a1.63,1.63,0,0,0-.42.72,3.16,3.16,0,0,0-.17,1,2.58,2.58,0,0,0,.24,1.09,2.2,2.2,0,0,0,.68.85,1.64,1.64,0,0,0,1,.33,2.26,2.26,0,0,0,1.41-.52,3.71,3.71,0,0,0,1.11-1.43,4.83,4.83,0,0,0,.44-2.13A5.21,5.21,0,0,0,6,11.24,3.18,3.18,0,0,0,5.41,10,2.28,2.28,0,0,0,4.2,9.3,4.43,4.43,0,0,0,5.77,8.14a5.71,5.71,0,0,0,1-1.65,4.51,4.51,0,0,0,.37-1.66,1.63,1.63,0,0,0-.51-1.37,1.75,1.75,0,0,0-1.14-.41,2.31,2.31,0,0,0-1,.23A2,2,0,0,0,3.75,4,1.79,1.79,0,0,0,3.44,5a2.55,2.55,0,0,0,.07.59,3.15,3.15,0,0,0,.22.63,1.1,1.1,0,0,1-.31.35A.72.72,0,0,1,3,6.76a.46.46,0,0,1-.38-.22A1.84,1.84,0,0,1,2.39,6a3.79,3.79,0,0,1-.07-.65,2.28,2.28,0,0,1,.51-1.51,3.23,3.23,0,0,1,1.3-.93,4.32,4.32,0,0,1,1.61-.32,3.67,3.67,0,0,1,1.37.26,2.45,2.45,0,0,1,1,.77,2.1,2.1,0,0,1,.4,1.33,3.69,3.69,0,0,1-.24,1.26,5.19,5.19,0,0,1-.69,1.26,5.3,5.3,0,0,1-1,1,3.51,3.51,0,0,1-1.25.63A3.42,3.42,0,0,1,7,10a3.37,3.37,0,0,1,.84,1.32,4,4,0,0,1,.25,1.35,4.07,4.07,0,0,1-.38,1.69,4.85,4.85,0,0,1-1,1.5,5.44,5.44,0,0,1-1.58,1.07A4.77,4.77,0,0,1,3.11,17.31Z" transform="translate(-0.11 -2.56)" fill="#674b2f"/><path d="M19.27,17.31a2.88,2.88,0,0,1-2-.67,4,4,0,0,1-1.14-1.75,7.19,7.19,0,0,1-.37-2.35,11.74,11.74,0,0,1,.31-2.62A13.68,13.68,0,0,1,17,7.23a11.67,11.67,0,0,1,1.4-2.36,6.89,6.89,0,0,1,1.83-1.68,4,4,0,0,1,2.18-.63,3.27,3.27,0,0,1,1.92.56,3.55,3.55,0,0,1,1.25,1.56A5.78,5.78,0,0,1,26,7.06a13.87,13.87,0,0,1-1.27,5.75,11.38,11.38,0,0,1-1.44,2.32,7,7,0,0,1-1.86,1.6A4.28,4.28,0,0,1,19.27,17.31Zm.25-.62a2.39,2.39,0,0,0,1.58-.64,6.51,6.51,0,0,0,1.4-1.72,14.25,14.25,0,0,0,1.12-2.39,19.49,19.49,0,0,0,.74-2.69,14.1,14.1,0,0,0,.26-2.58,7,7,0,0,0-.22-1.85,2.72,2.72,0,0,0-.7-1.29,1.74,1.74,0,0,0-1.29-.48,2.61,2.61,0,0,0-1.53.5,5.35,5.35,0,0,0-1.27,1.32,10.65,10.65,0,0,0-1,1.87,15.37,15.37,0,0,0-.72,2.14A16.91,16.91,0,0,0,17.46,11a13.36,13.36,0,0,0-.15,1.88,5.43,5.43,0,0,0,.6,2.74A1.79,1.79,0,0,0,19.52,16.69Z" transform="translate(-0.11 -2.56)" fill="#674b2f"/><path d="M30.56,18.68a6,6,0,0,0,.86-1.19c.32-.56.66-1.22,1-2s.75-1.6,1.14-2.49.78-1.81,1.16-2.74.75-1.82,1.1-2.69.66-1.67,1-2.4.52-1.32.7-1.8A.9.9,0,0,1,37.84,3a2.7,2.7,0,0,1,.58-.32,1.5,1.5,0,0,1,.63-.14c-.06.15-.19.44-.37.9s-.41,1-.68,1.64-.56,1.35-.87,2.12l-1,2.35c-.33.8-.65,1.57-1,2.3l-.84,2q-.37.88-.6,1.44a7.55,7.55,0,0,1-1.54,2.49A2.44,2.44,0,0,1,30.56,18.68Z" transform="translate(-0.11 -2.56)" fill="#674b2f"/><path d="M43.87,17.31a1.69,1.69,0,0,1-.73-.19,1.63,1.63,0,0,1-.66-.56l.29,0h.3a6.75,6.75,0,0,0,1-.07l1-.13a14.35,14.35,0,0,0,.63-1.89c.2-.75.4-1.56.58-2.43s.35-1.73.52-2.6.32-1.69.47-2.46.3-1.43.43-2a15.11,15.11,0,0,1-1.49,1,1.63,1.63,0,0,1-.61.24.51.51,0,0,1-.34-.1.57.57,0,0,1-.12-.43,7.48,7.48,0,0,0,1-.66c.43-.31.91-.69,1.42-1.13A18.5,18.5,0,0,0,49,2.56a.4.4,0,0,1,.13.25,1.22,1.22,0,0,1,0,.32,3.2,3.2,0,0,1-.17,1,7.91,7.91,0,0,0-.25,1.07c-.12.84-.28,1.76-.46,2.76s-.39,2-.63,3-.5,2-.78,2.91a16.62,16.62,0,0,1-.91,2.4l.38-.05h.35a3.11,3.11,0,0,1,1.17.2,1,1,0,0,1,.6.83l-.72-.07-.72,0c-.38,0-.74,0-1.1,0l-1,.09C44.53,17.3,44.2,17.31,43.87,17.31Z" transform="translate(-0.11 -2.56)" fill="#674b2f"/><path d="M59.94,17.31a2.87,2.87,0,0,1-2-.67,3.92,3.92,0,0,1-1.15-1.75,7.19,7.19,0,0,1-.37-2.35,11.74,11.74,0,0,1,.31-2.62,13.72,13.72,0,0,1,.9-2.69,11.19,11.19,0,0,1,1.39-2.36,7.2,7.2,0,0,1,1.83-1.68,4.09,4.09,0,0,1,2.19-.63A3.32,3.32,0,0,1,65,3.12a3.69,3.69,0,0,1,1.25,1.56,5.78,5.78,0,0,1,.45,2.38,13.63,13.63,0,0,1-.33,3,14.3,14.3,0,0,1-.94,2.79A11,11,0,0,1,64,15.13a6.77,6.77,0,0,1-1.85,1.6A4.34,4.34,0,0,1,59.94,17.31Zm.26-.62a2.43,2.43,0,0,0,1.58-.64,6.93,6.93,0,0,0,1.4-1.72,15.06,15.06,0,0,0,1.11-2.39A18.18,18.18,0,0,0,65,9.25a13.32,13.32,0,0,0,.27-2.58,7.39,7.39,0,0,0-.22-1.85,2.73,2.73,0,0,0-.71-1.29,1.74,1.74,0,0,0-1.29-.48,2.61,2.61,0,0,0-1.52.5,5.18,5.18,0,0,0-1.27,1.32,10.68,10.68,0,0,0-1,1.87,15.37,15.37,0,0,0-.72,2.14A18.83,18.83,0,0,0,58.13,11,13.36,13.36,0,0,0,58,12.92a5.43,5.43,0,0,0,.6,2.74A1.79,1.79,0,0,0,60.2,16.69Z" transform="translate(-0.11 -2.56)" fill="#674b2f"/><path d="M71.24,18.68a6.52,6.52,0,0,0,.85-1.19c.32-.56.67-1.22,1-2s.75-1.6,1.14-2.49.78-1.81,1.16-2.74.75-1.82,1.1-2.69.66-1.67,1-2.4.52-1.32.7-1.8A.9.9,0,0,1,78.51,3a2.55,2.55,0,0,1,.59-.32,1.46,1.46,0,0,1,.62-.14l-.37.9c-.18.45-.4,1-.67,1.64L77.8,7.22l-1,2.35c-.33.8-.65,1.57-1,2.3l-.84,2c-.25.59-.45,1.07-.59,1.44a7.56,7.56,0,0,1-1.55,2.49A2.44,2.44,0,0,1,71.24,18.68Z" transform="translate(-0.11 -2.56)" fill="#674b2f"/><path d="M91.27,17.31a4.6,4.6,0,0,1-1.22-.2,13.05,13.05,0,0,1-1.47-.52L87,15.92a6.12,6.12,0,0,1-1.09.58,2.68,2.68,0,0,1-1,.21,1.36,1.36,0,0,1-.89-.28.87.87,0,0,1-.35-.71.74.74,0,0,1,.33-.65,1.88,1.88,0,0,1,1-.23,6,6,0,0,1,.89.08l1,.18a14.18,14.18,0,0,0,1.7-1.85,18.11,18.11,0,0,0,1.58-2.4A16.22,16.22,0,0,0,91.39,8.2a8.07,8.07,0,0,0,.45-2.55,2.88,2.88,0,0,0-.55-2,1.78,1.78,0,0,0-1.39-.62,2,2,0,0,0-1.36.49,3,3,0,0,0-.85,1.32,5.6,5.6,0,0,0-.29,1.89,3.92,3.92,0,0,0,0,.63,3.31,3.31,0,0,0,.18.61h-.09a1.92,1.92,0,0,1-1-.52,1.65,1.65,0,0,1-.32-1.11,3.57,3.57,0,0,1,.5-1.85A3.91,3.91,0,0,1,88.14,3.1a3.85,3.85,0,0,1,2-.54A2.71,2.71,0,0,1,91.76,3a3.06,3.06,0,0,1,1,1.19,3.85,3.85,0,0,1,.36,1.69,7.11,7.11,0,0,1-.24,1.82,11,11,0,0,1-.62,1.78,15.28,15.28,0,0,1-1.19,2.13,20.3,20.3,0,0,1-1.54,2,14.72,14.72,0,0,1-1.71,1.66l2.31.49a9.18,9.18,0,0,0,1.62.19,2.27,2.27,0,0,0,.65-.1,4.82,4.82,0,0,0,.74-.36,2.8,2.8,0,0,1-.69,1.36A1.62,1.62,0,0,1,91.27,17.31Zm-6.39-1.1a1.6,1.6,0,0,0,.63-.15,4.63,4.63,0,0,0,.74-.41c-.29-.1-.54-.18-.78-.24a2.57,2.57,0,0,0-.61-.09.69.69,0,0,0-.51.15.46.46,0,0,0-.13.29.39.39,0,0,0,.21.33A.89.89,0,0,0,84.88,16.21Z" transform="translate(-0.11 -2.56)" fill="#674b2f"/><path d="M104.16,17.31a2.87,2.87,0,0,1-2-.67A3.92,3.92,0,0,1,101,14.89a7.19,7.19,0,0,1-.37-2.35A11.74,11.74,0,0,1,101,9.92a13.72,13.72,0,0,1,.9-2.69,11.19,11.19,0,0,1,1.39-2.36,7,7,0,0,1,1.83-1.68,4.09,4.09,0,0,1,2.19-.63,3.32,3.32,0,0,1,1.92.56,3.69,3.69,0,0,1,1.25,1.56,5.78,5.78,0,0,1,.45,2.38,14.28,14.28,0,0,1-.33,3,13.69,13.69,0,0,1-1,2.79,10.56,10.56,0,0,1-1.44,2.32,6.66,6.66,0,0,1-1.86,1.6A4.28,4.28,0,0,1,104.16,17.31Zm.26-.62a2.43,2.43,0,0,0,1.58-.64,6.93,6.93,0,0,0,1.4-1.72,15.06,15.06,0,0,0,1.11-2.39,18.18,18.18,0,0,0,.74-2.69,13.32,13.32,0,0,0,.27-2.58,7.39,7.39,0,0,0-.22-1.85,2.73,2.73,0,0,0-.71-1.29,1.74,1.74,0,0,0-1.29-.48,2.61,2.61,0,0,0-1.52.5,5,5,0,0,0-1.27,1.32,10.68,10.68,0,0,0-1,1.87,15.37,15.37,0,0,0-.72,2.14,18.83,18.83,0,0,0-.44,2.16,13.36,13.36,0,0,0-.15,1.88,5.43,5.43,0,0,0,.6,2.74A1.79,1.79,0,0,0,104.42,16.69Z" transform="translate(-0.11 -2.56)" fill="#674b2f"/><path d="M124,17.31a4.6,4.6,0,0,1-1.22-.2,14.61,14.61,0,0,1-1.47-.52l-1.6-.67a6.12,6.12,0,0,1-1.09.58,2.68,2.68,0,0,1-1,.21,1.36,1.36,0,0,1-.89-.28.87.87,0,0,1-.35-.71.74.74,0,0,1,.33-.65,1.88,1.88,0,0,1,1-.23,5.87,5.87,0,0,1,.89.08l1,.18a14.18,14.18,0,0,0,1.7-1.85,17.17,17.17,0,0,0,1.58-2.4,15.41,15.41,0,0,0,1.17-2.65,8.07,8.07,0,0,0,.45-2.55,2.88,2.88,0,0,0-.55-2,1.78,1.78,0,0,0-1.39-.62,2,2,0,0,0-1.36.49,3.05,3.05,0,0,0-.85,1.32,5.86,5.86,0,0,0-.29,1.89,3,3,0,0,0,.05.63,3.19,3.19,0,0,0,.17.61h-.09a1.89,1.89,0,0,1-1-.52A1.6,1.6,0,0,1,119,6.36a3.67,3.67,0,0,1,.5-1.85,4,4,0,0,1,1.39-1.41,3.88,3.88,0,0,1,2.06-.54,2.66,2.66,0,0,1,1.56.45,3,3,0,0,1,1,1.19,3.85,3.85,0,0,1,.36,1.69,7.11,7.11,0,0,1-.24,1.82A11,11,0,0,1,125,9.49a15.28,15.28,0,0,1-1.19,2.13,20.3,20.3,0,0,1-1.54,2,14.72,14.72,0,0,1-1.71,1.66l2.31.49a9.18,9.18,0,0,0,1.62.19,2.27,2.27,0,0,0,.65-.1,4.42,4.42,0,0,0,.74-.36,2.8,2.8,0,0,1-.69,1.36A1.6,1.6,0,0,1,124,17.31Zm-6.39-1.1a1.68,1.68,0,0,0,.64-.15,5,5,0,0,0,.73-.41q-.42-.15-.78-.24a2.57,2.57,0,0,0-.61-.09.65.65,0,0,0-.5.15.43.43,0,0,0-.14.29.39.39,0,0,0,.21.33A.89.89,0,0,0,117.58,16.21Z" transform="translate(-0.11 -2.56)" fill="#674b2f"/><path d="M135.44,17.31a3.63,3.63,0,0,1-1.87-.41,2.32,2.32,0,0,1-.95-1,2.84,2.84,0,0,1-.27-1.17,2.76,2.76,0,0,1,.16-.93A1.91,1.91,0,0,1,133,13a1.2,1.2,0,0,1,.82-.3H134l.16,0a1.59,1.59,0,0,0-.42.71,3.36,3.36,0,0,0-.17,1.06,3,3,0,0,0,.18,1.05,1.94,1.94,0,0,0,.6.83,1.74,1.74,0,0,0,1.09.32,2.28,2.28,0,0,0,1.29-.38,3.25,3.25,0,0,0,1-1A4.61,4.61,0,0,0,138.3,14a5.33,5.33,0,0,0,.21-1.47,3.78,3.78,0,0,0-.25-1.4,2.16,2.16,0,0,0-2.2-1.45c-.21,0-.46,0-.76.05l-.92.15a11.63,11.63,0,0,1,.25-1.27c.12-.51.26-1,.42-1.63s.32-1.15.49-1.72.31-1.07.45-1.52.23-.81.29-1.06c.36.08.71.14,1,.18a7.23,7.23,0,0,0,.91,0,9.31,9.31,0,0,0,1.42-.1l1.41-.26c0,.1,0,.19,0,.27a.94.94,0,0,1,0,.22,1,1,0,0,1-.35.83,1.86,1.86,0,0,1-.85.43,5.27,5.27,0,0,1-1,.11,5.57,5.57,0,0,1-1.16-.11,3.52,3.52,0,0,0-.83-.12.38.38,0,0,0-.24.06.87.87,0,0,0-.18.3c-.1.23-.21.54-.33.92s-.24.78-.35,1.2-.23.84-.33,1.24-.19.72-.26,1-.11.42-.12.47a6.86,6.86,0,0,1,.79-.14,7,7,0,0,1,.8,0,4.22,4.22,0,0,1,2,.44,2.85,2.85,0,0,1,1.19,1.24,3.9,3.9,0,0,1,.39,1.77,4.67,4.67,0,0,1-.62,2.38,4.48,4.48,0,0,1-1.72,1.68A5,5,0,0,1,135.44,17.31Z" transform="translate(-0.11 -2.56)" fill="#674b2f"/></svg>