<svg id="video" xmlns="http://www.w3.org/2000/svg" xmlns:xlink="http://www.w3.org/1999/xlink" viewBox="3.914 4.166 214.132 46.89" class="scene1 video stagger1">
  <defs>
    <linearGradient id="b" x1="7.56" y1="12.4" x2="214.45" y2="41.48" gradientUnits="userSpaceOnUse">
      <stop offset="0" stop-color="#a49382"></stop>
      <stop offset="0.6" stop-color="#856f59"></stop>
      <stop offset="0.62" stop-color="#907b67"></stop>
      <stop offset="0.66" stop-color="#a49382"></stop>
      <stop offset="0.79" stop-color="#87715b"></stop>
      <stop offset="0.93" stop-color="#70553b"></stop>
      <stop offset="1" stop-color="#674b2f"></stop>
    </linearGradient>
  </defs>
  <g style="isolation:isolate">
    <path d="M195.38,47.85H26.64A20.91,20.91,0,0,1,5.73,26.94h0A20.91,20.91,0,0,1,26.64,6H195.38a20.91,20.91,0,0,1,20.91,20.91h0A20.91,20.91,0,0,1,195.38,47.85Z" fill="url(#b)"></path>
    <path d="M 8.488 0.052 L 8.359 0.052 Q 7.451 0.13 5.624 -0.324 Q 5.145 -0.428 4.834 -0.428 Q 4.108 -0.428 4.108 0 Q 4.108 0.324 4.471 0.641 Q 4.834 0.959 5.274 0.985 Q 6.791 1.037 8.488 0.052 Z M 1.698 -5.78 Q 1.724 -5.339 1.484 -4.898 Q 1.244 -4.458 0.79 -4.458 Q 0.428 -4.458 0.207 -4.834 Q 0.104 -4.989 0.156 -5.119 Q 0.181 -5.222 0.311 -5.119 Q 0.402 -5.041 0.505 -5.041 Q 0.842 -5.041 1.179 -5.495 Q 1.516 -5.948 1.425 -6.505 Q 1.192 -7.27 1.192 -8.125 Q 1.192 -11.78 4.432 -14.566 Q 4.16 -14.514 3.927 -14.54 Q 3.318 -14.592 2.89 -15.019 Q 2.76 -14.968 2.605 -14.968 Q 1.749 -14.968 1.322 -15.901 Q 1.089 -16.354 1.089 -17.041 Q 1.089 -18.233 1.646 -18.583 Q 1.931 -18.765 2.099 -18.661 Q 1.905 -18.492 1.905 -18.259 Q 1.905 -17.754 2.436 -17.404 Q 2.734 -17.222 3.292 -16.562 Q 3.473 -16.264 3.473 -15.927 Q 3.473 -15.395 3.097 -15.123 Q 3.421 -14.838 4.03 -14.838 Q 4.484 -14.812 4.989 -15.019 Q 6.998 -16.51 9.551 -17.015 Q 8.786 -17.274 8.786 -17.935 Q 8.786 -18.557 9.395 -18.557 Q 9.629 -18.557 9.629 -18.441 Q 9.629 -18.415 9.486 -18.324 Q 9.343 -18.233 9.343 -18 Q 9.343 -17.248 9.978 -17.093 L 10.004 -17.067 Q 10.911 -17.222 11.857 -17.222 Q 14.488 -17.222 16.108 -16.004 Q 17.909 -14.644 17.909 -12.207 Q 17.909 -10.613 17.145 -8.708 Q 16.484 -7.037 14.747 -4.911 Q 12.946 -2.657 10.873 -1.011 Q 13.374 -2.125 16.691 -5.041 Q 18.791 -6.842 21.045 -9.875 Q 22.639 -12.026 24.207 -14.203 Q 28.393 -19.607 31.659 -19.607 Q 33.81 -19.607 33.81 -18.052 Q 33.81 -17.65 33.629 -17.274 L 33.253 -17.443 Q 33.408 -17.754 33.408 -18.052 Q 33.408 -18.583 33 -18.888 Q 32.592 -19.192 32.035 -19.192 Q 29.248 -19.192 24.337 -12.816 Q 20.462 -7.801 16.95 -4.73 Q 13.14 -1.374 9.68 -0.181 Q 7.114 1.438 5.274 1.348 Q 4.186 1.322 3.499 0.687 Q 2.89 0.13 2.89 -0.557 Q 2.89 -1.063 3.22 -1.406 Q 3.551 -1.749 3.978 -1.749 Q 4.16 -1.749 4.354 -1.646 Q 5.171 -1.218 6 -0.79 Q 7.063 -0.35 8.06 -0.35 Q 8.683 -0.35 9.318 -0.505 Q 11.197 -1.853 12.946 -4.251 Q 14.462 -6.311 15.227 -8.203 Q 16.056 -10.251 16.056 -11.948 Q 16.056 -14.177 14.644 -15.473 Q 13.348 -16.665 11.248 -16.665 Q 9.654 -16.665 8.229 -16.212 Q 7.296 -15.706 7.348 -14.994 Q 7.646 -14.968 7.827 -14.689 Q 8.009 -14.41 7.983 -14.086 Q 7.957 -13.724 7.698 -13.27 Q 7.529 -13.037 7.555 -12.739 Q 7.555 -12.389 7.827 -12.311 Q 7.749 -12.181 7.503 -12.207 Q 7.114 -12.259 6.778 -12.842 Q 6.441 -13.426 6.441 -13.905 Q 6.441 -14.89 7.192 -14.994 Q 7.14 -15.551 7.529 -15.953 Q 4.795 -14.838 3.188 -12.233 Q 2.281 -10.769 2.281 -9.875 Q 2.281 -8.942 2.838 -8.54 Q 3.343 -8.994 4.03 -8.708 Q 4.484 -8.54 4.937 -8.009 Q 5.274 -7.646 5.728 -7.646 Q 6.026 -7.646 6.156 -7.853 Q 6.285 -7.698 6.156 -7.425 Q 5.806 -6.661 4.302 -6.661 Q 3.629 -6.661 3.097 -7.063 Q 2.462 -7.516 2.605 -8.151 Q 2.657 -8.255 2.708 -8.359 Q 2.255 -8.683 2.048 -9.369 Q 1.905 -8.683 1.905 -8.009 Q 1.905 -6.791 2.359 -5.922 Q 3.24 -4.134 5.598 -4.134 Q 7.244 -4.134 8.54 -4.989 Q 9.499 -5.624 9.369 -6.609 Q 9.201 -6.505 9.019 -6.505 Q 8.307 -6.505 7.983 -7.218 Q 7.775 -7.672 7.775 -8.359 Q 7.801 -8.76 7.575 -9.104 Q 7.348 -9.447 6.972 -9.369 Q 7.14 -9.797 7.698 -9.797 Q 8.035 -9.797 8.307 -9.654 Q 9.123 -9.343 9.654 -8.436 Q 9.875 -8.048 9.875 -7.594 Q 9.875 -7.037 9.551 -6.739 Q 9.732 -5.922 9.201 -5.171 Q 9.369 -5.197 9.499 -5.197 Q 10.186 -5.093 10.186 -4.51 Q 10.186 -4.354 10.134 -4.218 Q 10.082 -4.082 9.953 -4.108 Q 9.823 -4.134 9.797 -4.328 Q 9.68 -4.86 8.592 -4.587 Q 8.566 -4.587 8.514 -4.562 Q 7.14 -3.719 5.469 -3.719 Q 2.76 -3.719 1.698 -5.78 Z M 26.596 -4.199 Q 24.419 -0.816 22.722 0 Q 22.061 0.298 21.426 0.298 Q 19.728 0.298 19.728 -1.374 Q 19.728 -2.76 20.972 -4.562 L 23.577 -8.41 Q 23.862 -8.631 24.484 -8.631 Q 25.456 -8.631 25.326 -8.359 L 22.696 -4.458 Q 22.307 -3.901 21.348 -2.359 Q 20.843 -1.438 20.843 -0.765 Q 20.843 -0.052 21.504 -0.052 Q 21.983 -0.052 22.722 -0.454 Q 24.393 -1.348 26.259 -4.406 Q 26.311 -4.484 26.467 -4.458 Q 26.622 -4.406 26.622 -4.302 Q 26.622 -4.251 26.596 -4.199 Z M 26.998 -10.834 Q 26.998 -10.38 26.655 -10.017 Q 26.311 -9.654 25.858 -9.654 Q 25.067 -9.654 25.067 -10.458 Q 25.067 -10.911 25.411 -11.268 Q 25.754 -11.624 26.234 -11.624 Q 26.998 -11.624 26.998 -10.834 Z M 39.235 -11.65 L 35.996 -6.505 Q 35.296 -5.495 33.818 -3.019 Q 33.598 -2.657 33.158 -1.672 Q 32.885 -1.063 32.885 -0.661 Q 32.885 -0.13 33.339 -0.13 Q 33.767 -0.13 34.376 -0.609 Q 35.244 -1.27 36.307 -2.734 Q 37.136 -3.797 37.395 -4.302 Q 37.499 -4.458 37.667 -4.406 Q 37.797 -4.328 37.771 -4.173 Q 36.125 -1.322 34.583 -0.259 Q 33.793 0.298 32.963 0.298 Q 31.667 0.298 31.719 -1.166 Q 31.719 -1.775 32.004 -2.631 Q 29.84 0.207 28.272 0.207 Q 26.782 0.207 26.782 -1.879 Q 26.782 -2.916 27.261 -4.056 Q 27.793 -5.339 29.386 -6.739 Q 31.291 -8.436 32.963 -8.436 Q 34.207 -8.436 34.207 -7.192 Q 34.207 -6.765 34.026 -6.207 L 37.499 -11.922 Q 37.59 -12.052 38.114 -12.266 Q 38.639 -12.48 39.015 -12.48 Q 39.443 -12.48 39.443 -12.181 Q 39.443 -11.974 39.235 -11.65 Z M 33.715 -6.687 Q 33.741 -6.985 33.741 -7.192 Q 33.741 -8.073 33.119 -8.073 Q 32.302 -8.073 31.052 -6.784 Q 29.801 -5.495 29.166 -4.173 Q 27.922 -1.542 27.922 -0.816 Q 27.922 -0.298 28.35 -0.233 Q 29.698 -0.078 31.693 -2.864 Q 33.469 -5.339 33.715 -6.687 Z M 45.876 -4.173 Q 44.943 -2.462 43.673 -1.27 Q 42.027 0.233 40.459 0.233 Q 38.813 0.233 38.256 -1.166 Q 38.074 -1.672 38.074 -2.255 Q 38.074 -3.019 38.372 -3.719 Q 39.111 -5.443 41.048 -6.965 Q 42.986 -8.488 44.359 -8.488 Q 45.526 -8.488 45.526 -7.451 Q 45.526 -6 43.854 -4.834 Q 42.714 -4.03 41.236 -4.03 Q 40.757 -4.03 40.277 -4.134 Q 39.901 -3.719 39.616 -2.968 Q 39.241 -2.073 39.241 -1.374 Q 39.266 -0.13 40.485 -0.13 Q 41.158 -0.13 41.871 -0.505 Q 43.997 -1.646 45.5 -4.302 Q 45.85 -4.484 45.876 -4.173 Z M 40.433 -4.458 Q 40.731 -4.406 41.042 -4.406 Q 42.247 -4.406 43.297 -5.067 Q 44.282 -5.676 44.761 -6.635 Q 44.968 -7.063 44.968 -7.322 Q 44.968 -7.749 44.476 -7.749 Q 43.776 -7.749 43.089 -7.244 Q 41.521 -6.078 40.433 -4.458 Z M 55.847 -4.134 Q 54.395 -1.801 52.931 -1.801 Q 52.477 -1.801 51.946 -1.996 L 51.894 -1.905 Q 50.909 -0.531 49.963 -0.026 Q 49.212 0.376 48.421 0.376 Q 47.009 0.376 46.529 -0.881 Q 46.348 -1.413 46.348 -2.073 Q 46.348 -2.89 46.672 -3.797 Q 47.385 -5.896 48.933 -7.251 Q 50.482 -8.605 52.128 -8.605 Q 54.02 -8.605 54.02 -6.687 Q 54.02 -5.845 53.592 -4.639 Q 53.138 -3.369 52.322 -2.436 Q 52.633 -2.255 52.983 -2.255 Q 53.67 -2.255 54.421 -2.942 Q 55.082 -3.525 55.484 -4.354 Q 55.795 -4.458 55.847 -4.134 Z M 53.436 -5.728 Q 53.618 -6.311 53.54 -7.037 Q 53.436 -8.009 52.581 -8.009 Q 51.363 -8.009 49.963 -6.505 Q 48.732 -5.222 48.227 -3.927 Q 47.618 -2.359 47.644 -1.244 Q 47.696 -0.052 48.68 -0.052 Q 49.212 -0.052 49.873 -0.428 Q 50.883 -1.011 51.661 -2.125 Q 50.935 -2.501 50.935 -3.499 Q 50.935 -4.458 51.505 -5.384 Q 52.076 -6.311 52.827 -6.259 Q 53.462 -6.207 53.436 -5.728 Z M 64.021 -4.484 Q 67.74 -10.432 68.634 -11.676 Q 71.822 -16.16 74.323 -17.572 Q 75.347 -18.156 76.202 -18.156 Q 77.395 -18.156 77.395 -17.145 Q 77.395 -16.289 76.708 -14.942 Q 76.073 -13.724 75.217 -12.765 Q 72.198 -9.447 68.246 -8.631 L 64.811 -3.693 Q 65.433 -4.328 66.068 -5.067 Q 67.312 -6.531 68.855 -7.62 Q 70.708 -8.942 71.796 -8.786 Q 72.807 -8.657 72.807 -7.775 Q 72.807 -6.454 70.474 -5.391 Q 69.49 -4.937 68.155 -4.886 Q 68.401 -4.536 68.401 -4.03 Q 68.401 -3.577 68.161 -2.942 Q 67.922 -2.307 67.572 -0.959 Q 67.52 -0.259 68.051 -0.259 Q 68.401 -0.259 68.881 -0.531 Q 70.734 -1.594 72.457 -4.38 Q 72.535 -4.458 72.729 -4.406 Q 72.911 -4.328 72.833 -4.225 Q 69.865 0.207 67.766 0.207 Q 66.276 0.207 66.146 -0.907 Q 66.043 -1.568 66.613 -2.812 Q 67.183 -4.056 67.183 -4.458 Q 67.183 -4.782 66.911 -4.782 Q 66.302 -4.782 65.537 -3.978 Q 63.645 -2.048 62.634 0 Q 62.531 0.052 62.194 0.078 Q 61.844 0.104 61.585 0.078 Q 61.261 0.078 61.312 0 Q 61.947 -1.14 64.021 -4.484 Z M 70.28 -8.048 Q 68.531 -7.063 66.626 -5.093 L 66.626 -5.067 Q 67.922 -5.093 70.021 -6.311 Q 71.744 -7.296 71.744 -8.151 Q 71.744 -8.436 71.369 -8.436 Q 70.98 -8.436 70.28 -8.048 Z M 74.233 -16.354 Q 71.952 -14.281 68.582 -9.136 Q 69.619 -9.343 70.98 -10.108 Q 72.833 -11.197 74.414 -12.94 Q 75.995 -14.683 76.474 -15.732 Q 76.863 -16.639 76.863 -17.093 Q 76.863 -17.832 75.943 -17.469 Q 75.114 -17.145 74.233 -16.354 Z M 79.421 -4.199 Q 77.244 -0.816 75.546 0 Q 74.885 0.298 74.25 0.298 Q 72.553 0.298 72.553 -1.374 Q 72.553 -2.76 73.797 -4.562 L 76.402 -8.41 Q 76.687 -8.631 77.309 -8.631 Q 78.281 -8.631 78.151 -8.359 L 75.52 -4.458 Q 75.132 -3.901 74.173 -2.359 Q 73.667 -1.438 73.667 -0.765 Q 73.667 -0.052 74.328 -0.052 Q 74.808 -0.052 75.546 -0.454 Q 77.218 -1.348 79.084 -4.406 Q 79.136 -4.484 79.291 -4.458 Q 79.447 -4.406 79.447 -4.302 Q 79.447 -4.251 79.421 -4.199 Z M 79.181 -10.659 Q 79.181 -10.659 79.567 -10.811 Q 79.952 -10.963 80.095 -11.637 Q 80.237 -12.311 79.356 -12.544 Q 78.695 -12.596 78.352 -12.376 Q 78.008 -12.156 77.931 -11.78 Q 77.983 -11.43 78.371 -11.443 Q 78.76 -11.456 79.006 -11.508 Q 79.188 -11.378 78.954 -11.261 Q 78.669 -11.093 78.475 -11.106 Q 77.114 -11.015 77.399 -12.052 Q 77.568 -12.48 78.112 -12.752 Q 78.721 -13.011 79.486 -12.92 Q 80.276 -12.791 80.613 -12.415 Q 81.067 -12 80.859 -11.443 Q 80.717 -11.002 80.147 -10.665 Q 79.719 -10.419 79.201 -10.276 Q 78.903 -10.199 78.643 -10.056 Q 78.203 -9.875 77.736 -9.473 Q 77.464 -9.525 77.937 -9.94 Q 78.41 -10.354 79.181 -10.659 Z M 98.713 -4.173 Q 96.821 -1.192 95.344 -0.156 Q 94.567 0.376 93.802 0.376 Q 92.286 0.376 92.286 -1.244 Q 92.286 -2.41 93.426 -4.199 Q 94.359 -5.572 95.292 -6.933 Q 95.577 -7.4 95.577 -7.749 Q 95.577 -8.125 95.266 -8.125 Q 94.567 -8.125 93.089 -6.661 Q 90.77 -4.38 88.541 0 Q 88.178 0.13 87.452 0.13 Q 86.843 0.13 86.636 0.052 Q 88.009 -1.775 89.927 -4.989 Q 90.964 -6.713 91.223 -7.348 Q 91.392 -7.749 91.392 -7.957 Q 91.392 -8.203 91.171 -8.203 Q 90.86 -8.203 90.433 -7.749 Q 89.551 -6.842 87.75 -3.978 Q 87.646 -3.823 87.491 -3.849 Q 87.297 -3.901 87.374 -4.082 Q 89.098 -6.868 89.137 -6.894 Q 90.562 -8.89 91.469 -8.76 Q 92.415 -8.631 92.415 -7.594 Q 92.415 -7.089 92.182 -6.454 Q 92.312 -6.583 92.584 -6.868 Q 94.437 -8.786 95.953 -8.786 Q 97.171 -8.786 97.171 -7.801 Q 97.171 -6.687 95.214 -4.082 Q 94.644 -3.369 93.595 -1.672 Q 93.245 -1.063 93.245 -0.635 Q 93.245 -0.026 93.828 -0.026 Q 94.437 -0.026 95.344 -0.739 Q 96.99 -2.048 98.338 -4.302 Q 98.662 -4.354 98.713 -4.173 Z M 105.328 -4.199 Q 103.151 -0.816 101.453 0 Q 100.792 0.298 100.157 0.298 Q 98.459 0.298 98.459 -1.374 Q 98.459 -2.76 99.703 -4.562 L 102.308 -8.41 Q 102.593 -8.631 103.215 -8.631 Q 104.187 -8.631 104.058 -8.359 L 101.427 -4.458 Q 101.038 -3.901 100.079 -2.359 Q 99.574 -1.438 99.574 -0.765 Q 99.574 -0.052 100.235 -0.052 Q 100.714 -0.052 101.453 -0.454 Q 103.125 -1.348 104.991 -4.406 Q 105.043 -4.484 105.198 -4.458 Q 105.354 -4.406 105.354 -4.302 Q 105.354 -4.251 105.328 -4.199 Z M 105.729 -10.834 Q 105.729 -10.38 105.386 -10.017 Q 105.043 -9.654 104.589 -9.654 Q 103.799 -9.654 103.799 -10.458 Q 103.799 -10.911 104.142 -11.268 Q 104.485 -11.624 104.965 -11.624 Q 105.729 -11.624 105.729 -10.834 Z M 113.418 -4.173 Q 112.485 -2.462 111.215 -1.27 Q 109.569 0.233 108.001 0.233 Q 106.355 0.233 105.798 -1.166 Q 105.604 -1.672 105.604 -2.255 Q 105.604 -3.019 105.902 -3.719 Q 106.64 -5.443 108.578 -6.965 Q 110.515 -8.488 111.902 -8.488 Q 113.068 -8.488 113.068 -7.451 Q 113.068 -6 111.396 -4.834 Q 110.256 -4.03 108.766 -4.03 Q 108.286 -4.03 107.807 -4.134 Q 107.444 -3.719 107.146 -2.968 Q 106.783 -2.073 106.783 -1.374 Q 106.809 -0.13 108.027 -0.13 Q 108.688 -0.13 109.401 -0.505 Q 111.526 -1.646 113.042 -4.302 Q 113.392 -4.484 113.418 -4.173 Z M 107.975 -4.458 Q 108.26 -4.406 108.584 -4.406 Q 109.777 -4.406 110.839 -5.067 Q 111.824 -5.676 112.304 -6.635 Q 112.511 -7.063 112.511 -7.322 Q 112.511 -7.749 112.005 -7.749 Q 111.319 -7.749 110.632 -7.244 Q 109.064 -6.078 107.975 -4.458 Z M 107.25 2.449 Q 107.25 3.33 106.407 3.33 Q 105.5 3.33 105.5 2.449 Q 105.5 1.568 106.355 1.568 Q 107.25 1.568 107.25 2.449 Z M 114.027 -9.447 Q 113.366 -9.447 112.848 -10.205 Q 112.329 -10.963 112.044 -10.963 Q 111.928 -10.963 110.859 -10.296 Q 109.789 -9.629 109.699 -9.629 Q 109.491 -9.629 109.491 -9.732 Q 109.491 -9.758 109.53 -9.823 Q 109.88 -9.978 110.411 -10.264 Q 111.72 -10.989 112.329 -11.404 Q 112.537 -11.546 112.666 -11.546 Q 112.835 -11.546 113.327 -10.814 Q 113.82 -10.082 114.234 -10.03 Q 114.416 -9.978 114.662 -10.03 Q 114.908 -10.082 114.973 -10.082 Q 115.025 -10.082 115.025 -10.056 Q 114.986 -9.991 114.908 -9.953 Q 114.442 -9.447 114.027 -9.447 Z M 130.141 -4.134 Q 127.381 0.402 125.022 0.402 Q 123.558 0.402 123.558 -0.985 Q 123.558 -1.438 123.739 -1.944 Q 124.141 -2.942 124.918 -4.108 Q 125.605 -5.171 126.318 -6.207 Q 126.746 -6.894 126.746 -7.244 Q 126.746 -7.568 126.422 -7.568 Q 125.333 -7.568 123.558 -5.469 Q 122.067 -3.745 119.657 0 Q 118.841 0.298 117.778 0.078 Q 121.705 -5.521 122.165 -6.279 Q 122.625 -7.037 122.625 -7.542 Q 122.625 -7.879 122.339 -7.879 Q 121.756 -7.879 120.24 -6.428 Q 119.476 -5.676 118.141 -3.901 Q 116.897 -2.229 115.432 0 Q 115.044 0.13 114.344 0.13 Q 113.735 0.13 113.527 0.052 Q 114.46 -1.114 116.106 -3.525 Q 117.882 -6.13 118.283 -6.985 Q 118.594 -7.646 118.594 -7.983 Q 118.594 -8.255 118.387 -8.255 Q 118.193 -8.255 117.908 -8.073 Q 116.819 -7.374 114.668 -4.004 Q 114.512 -3.927 114.415 -4.017 Q 114.318 -4.108 114.344 -4.251 Q 116.689 -7.775 117.661 -8.462 Q 118.219 -8.838 118.698 -8.838 Q 119.709 -8.838 119.709 -7.749 Q 119.709 -7.011 119.372 -6.181 Q 119.579 -6.479 120.363 -7.218 Q 121.147 -7.957 121.355 -8.073 Q 122.184 -8.514 122.949 -8.514 Q 124.063 -8.514 124.063 -7.698 Q 124.063 -7.089 123.532 -6.13 Q 124.698 -7.296 125.683 -7.892 Q 126.668 -8.488 127.381 -8.488 Q 128.443 -8.488 128.443 -7.425 Q 128.443 -6.531 127.588 -5.391 Q 126.953 -4.536 126.292 -3.693 Q 125.45 -2.527 125.074 -1.698 Q 124.776 -1.063 124.776 -0.635 Q 124.776 -0.104 125.255 -0.104 Q 126.266 -0.104 127.86 -1.801 Q 129.052 -3.084 129.791 -4.354 Q 129.882 -4.432 130.011 -4.38 Q 130.141 -4.302 130.141 -4.134 Z" transform="matrix(1, 0, 0, 1, 46.790001, 34.580002)" style="fill: rgb(243, 241, 239); pointer-events: none; text-wrap-mode: nowrap;"></path>
  </g>
</svg>