<svg xmlns="http://www.w3.org/2000/svg" width="736.17" height="837.35" viewBox="0 0 736.17 837.35"><path d="M0,826.79l.26,2.66a.37.37,0,0,0,.08.18l7.52,7.63.09.07a.36.36,0,0,0,.14,0,.32.32,0,0,0,.22-.13c.31-.47.74-.48,1.42-.47H10l2.12,0c1.53,0,3.12,0,4.68,0a13.53,13.53,0,0,0,4.24-.87c5.06-2,8.36-4.77,10.38-8.57.12-.22.26-.45.39-.67l.14-.24a63.57,63.57,0,0,1,13.3-15.62c2-1.78,4-3.69,6-5.54,1.05-1,2.1-2,3.16-3l1.51-1.41c2.07-1.94,4.2-3.94,6.37-5.82,1.89-1.64,3.84-3.28,5.73-4.85s3.64-3,5.44-4.6c2-1.74,4-3.61,5.85-5.42l.44-.42a80.46,80.46,0,0,1,10-7.92c2.45-1.72,4.85-3.57,7.17-5.37,1.13-.87,2.25-1.73,3.38-2.58l1.73-1.33c1.47-1.13,3-2.31,4.55-3.35,3.33-2.22,6.73-4.46,10-6.62,4.82-3.17,9.81-6.44,14.66-9.75A134.23,134.23,0,0,0,152.2,725a78.77,78.77,0,0,1,7.59-7c.57-.46,1.15-.91,1.73-1.36,4.14-3.25,8.42-6.61,11.73-10.93a31,31,0,0,1,6.69-6.26,118.8,118.8,0,0,0,13.31-11.39,26.25,26.25,0,0,1,6.22-4.6,15.66,15.66,0,0,0,5.92-4.72,17.35,17.35,0,0,1,8.18-6.36,6.54,6.54,0,0,0,1-.57,3,3,0,0,1,2-.68l.46.61,1.15,1.55a23.19,23.19,0,0,0,17.36,9.79c7.07.67,13.83-1.48,20.11-6.4,2.58-2,5.05-4.25,7.43-6.42l.94-.85c1.35-1.22,2.15-2.15,2-3s-1.33-1.3-3.1-1.82a137.28,137.28,0,0,1-16.14-5.58,32.23,32.23,0,0,0-5.13-1.67,22.23,22.23,0,0,0-20.91,4.88c-.18.16-.34.33-.51.5a4.07,4.07,0,0,1-1.43,1.07c0-.05,0-.11,0-.17a2.49,2.49,0,0,1,.08-.77,29,29,0,0,1,8.46-12.4,216.35,216.35,0,0,0,20.83-21.1l.59-.71c2-2.37,4-4.82,6.26-7,1.84-1.81,3.89-3.48,5.87-5.1l2-1.61c11.39-9.48,20.14-19,26.76-29.14,3.49-5.34,7.64-11.63,12-17.72a78.21,78.21,0,0,1,12.77-14.28,32.46,32.46,0,0,1,21.72-8.07,76.85,76.85,0,0,1,12.75,1,32.06,32.06,0,0,0,11.47.19,18.94,18.94,0,0,1,8.36.35c2.35.63,4.72,1.3,7,1.94l3.64,1,3.86,1.06,4.4,1.21a9.38,9.38,0,0,0,7.74-1.27,21.09,21.09,0,0,0,1.78-1.25,10.94,10.94,0,0,1,6.42-2.33c2.09-.11,4.21-.31,6.26-.49l2.64-.24a8.2,8.2,0,0,0,5.54-2.65c.94-1,1.83-2.15,2.69-3.22l.28-.35a9.62,9.62,0,0,1,7.53-4l.32.58c.25.45.48.85.69,1.27a43.34,43.34,0,0,0,8,10.56,44,44,0,0,0,18.9,11.28c2.82.84,5.07,1.58,7.09,2.35,2.73,1,6,1.84,9.5-.07,2.26-1.23,4.7-.94,7.06.85a13.43,13.43,0,0,0,3.43,2,12.07,12.07,0,0,0,4.25.78,3.31,3.31,0,0,0,2.46-1,3.78,3.78,0,0,0,.82-2.92,4.94,4.94,0,0,0-2.21-3.79,19.37,19.37,0,0,0-2.2-1.25,11.5,11.5,0,0,1-5-4.75,20.29,20.29,0,0,1-2.45-12.88,1.3,1.3,0,0,1,.33-.55v0c.87.9,1.71,1.79,2.55,2.67,2.14,2.25,4.16,4.37,6.28,6.47a19.08,19.08,0,0,1,4.87,7.62c.57,1.68,1.12,3.39,1.64,5.09a18.74,18.74,0,0,0,5.33,8.89c.65.57,1.28,1.19,1.89,1.78.9.88,1.83,1.79,2.83,2.6a14.8,14.8,0,0,1,4.72,6.81c.34,1,.63,2,.92,2.92s.5,1.69.78,2.52c.14.43.27.86.41,1.29a22.41,22.41,0,0,0,1.58,4.1c2,3.73,4.27,7.42,6.43,11l.25.41c2.72,4.51,6.85,7.69,12.59,9.74a33.09,33.09,0,0,0,13.12,1.76,66.92,66.92,0,0,0,9.77-1.5l2.94-.59a64.86,64.86,0,0,1,8.77-1.23,21.52,21.52,0,0,1,13.33,3.78,20,20,0,0,1,2.11,1.69l.89.77c4.23,3.55,8.67,4.21,13.58,2a20,20,0,0,0,6.92-5.12,11.14,11.14,0,0,1,5.7-3.77,5.3,5.3,0,0,0,4.13-5.23,23.4,23.4,0,0,0-.22-5.39c-.52-3,0-5.25,1.53-7.16a2.32,2.32,0,0,0,.28-.44l.12-.2a7.37,7.37,0,0,0,0-8.06,13,13,0,0,0-6.19-5.44,43.71,43.71,0,0,0-8.94-2.6,36.67,36.67,0,0,1-5.44-1.51c-2.09-.79-3.45-2.1-4.8-4.58a1.76,1.76,0,0,1,.53-.06,28.61,28.61,0,0,0,10.37-.85l2.29-.51,2.58-.59a28.35,28.35,0,0,1,12.59-.3c6.78,1.45,14.58.05,21.4-3.85a30,30,0,0,0,14.47-18.27c.06-.24.13-.47.21-.71s.13-.44.19-.66a18.08,18.08,0,0,1,2.81-6,31.73,31.73,0,0,0,5-10.28,10.74,10.74,0,0,1,4.71-6.26c.8-.51,1.59-1,2.39-1.56,1-.65,2-1.32,3-2a14.12,14.12,0,0,0,6-15.9,36.55,36.55,0,0,0-2.36-6,40.2,40.2,0,0,0-8.34-11.61c-3.86-3.64-8-7.54-12.28-11.45-3.85-3.51-6.15-7-7.24-11a11.36,11.36,0,0,0-3.75-5.74,28.12,28.12,0,0,0-13.11-6.46,44.8,44.8,0,0,0-14.66-.44c-1.22.17-2.45.39-3.64.59q-1.35.24-2.7.45a12.81,12.81,0,0,1-1.44.12H609l.19-.12c.61-.38,1-.65,1.48-1,.75-.54,1.51-1.07,2.27-1.6,1.93-1.36,3.94-2.76,5.82-4.26a14.48,14.48,0,0,0,5.69-14.13l0-.31a29.91,29.91,0,0,0-.82-4.28c-.71-2.45-1.58-4.86-2.4-7.12-.89-2.45-1.69-4.46-2.49-6.31a22.4,22.4,0,0,1-.63-16.52,57.26,57.26,0,0,0,1.84-6.93,17.22,17.22,0,0,0,.35-5.75,27.14,27.14,0,0,0-18.13-21.12,48.53,48.53,0,0,0-24.4-2.31l-4.59.78-7,1.18a9.1,9.1,0,0,1-8.32-2.34,9.7,9.7,0,0,0-10.55-2.17l-.36.12a29.09,29.09,0,0,0-4,1.59,42.88,42.88,0,0,0-5.5,3.37,16,16,0,0,1-11.14,3.41L524.9,365c-.95,0-1.94-.11-2.89-.23-5.94-.78-11,1.45-15.57,6.81A33.43,33.43,0,0,0,499,387.38c-.34,1.91-.59,3.86-.83,5.75-.11.91-.23,1.83-.35,2.74,0,.11,0,.22,0,.33,0,.46-.06.66-.35.75-4.19-3.83-5.5-7.13-5-12.58.08-.82.23-1.65.38-2.44a27.64,27.64,0,0,0-4.18-21.35,112.55,112.55,0,0,1-9-15.73A19.72,19.72,0,0,0,478,342c-1.66-2.48-3.22-2.81-5.76-1.19-1.7,1.07-3.45,2.08-5.22,3-.93.48-1.9.92-2.84,1.35-1.19.54-2.43,1.1-3.59,1.75a40,40,0,0,0-5.72,3.68,27.91,27.91,0,0,0-9.09,13.59,81.46,81.46,0,0,0-2.16,8.32,34,34,0,0,1-5.71,12.83c-.73,1-1.42,2-2,2.95a25.06,25.06,0,0,0-4.26,15.75c.1,1.63.35,3.27.59,4.85.15,1,.3,2,.42,2.94l.23,1.87c.34,2.86.7,5.83.91,8.75a14.21,14.21,0,0,1-3.65,10.63c-4.54,5.25-6.47,11.82-5.76,19.52.65,7,4.27,12,10.74,14.71l.53.22c1.33.56,2.71,1.14,4,1.76a12.21,12.21,0,0,1,5.33,4.35,17.93,17.93,0,0,0,5.74,5.46,32.85,32.85,0,0,1,2.91,2c3.84,2.89,6.2,5.56,7.62,8.65,1,2.16,1.57,3.57,1.09,4.77-.38,1-1.52,1.82-3.56,2.66a1,1,0,0,1-.32,0l-.18,0c-1.7-3.14-4.45-4.47-8.17-4a7.09,7.09,0,0,1-4.86-1.38c-1.85-1.22-3.7-2.53-5.51-3.91a14.89,14.89,0,0,0-5.9-2.69c-1.13-.25-2.27-.6-3.37-.93l-1.06-.33a4.58,4.58,0,0,1-3.31-3.46,27.89,27.89,0,0,0-2.49-6,15.26,15.26,0,0,0-10.56-7.63c-1.47-.29-3.12-.4-4.2,1.12s-.4,2.88.25,4c.82,1.43,1.73,2.84,2.61,4.21.47.7.93,1.42,1.38,2.13.23.37.43.76.67,1.22l.23.45-1.47.59-6.68,2.7a5.12,5.12,0,0,1-.64.2,2.61,2.61,0,0,1-3.29-1.4c-1.45-2.62-2.83-5.23-3.88-7.2a1.63,1.63,0,0,1-.1-.58c0-.06,0-.1,0-.16l1.55-.86,3.43-1.88c7.27-3.93,14-13.93,12.13-24.73-.33-1.93-.77-3.93-1.29-5.95-.78-3-1.65-6.13-2.59-9.29a3.55,3.55,0,0,0-.77-1.22c-.16-.2-.34-.42-.51-.67a.3.3,0,0,0-.21-.12.27.27,0,0,0-.23.08l-.74.7a8.59,8.59,0,0,0-1.23,1.27c-.8,1.08-1.59,2.2-2.35,3.28s-1.32,1.88-2,2.81a6.8,6.8,0,0,1-.89.9l-.29.27c-.19-.44-.36-.87-.53-1.28-.46-1.13-.89-2.2-1.41-3.21a26.67,26.67,0,0,0-2.62-4.28,2.13,2.13,0,0,0-1.89-1,2.21,2.21,0,0,0-1.62,1.5c-.44,1-.85,2.08-1.26,3.1s-.92,2.35-1.43,3.5a98.8,98.8,0,0,0-4.6,13.92,26.69,26.69,0,0,0-.46,11.1,15.1,15.1,0,0,0,2.84,7,40.54,40.54,0,0,1,2.69,4.17,4.92,4.92,0,0,1,.71,2.9c-.11,1.5-.16,3-.21,4.51q0,1.49-.12,3l-.06,1.2c-.09,1.94-.19,3.95-.39,5.9a12.92,12.92,0,0,1-5.54,9.34,23.9,23.9,0,0,1-5.51,3.08A25.71,25.71,0,0,0,370,510.55a25,25,0,0,1-11.64,7.65c-1.12.37-2.59.86-4.06,1.4l-3.87,1.4c-4.23,1.53-8.61,3.12-12.89,4.72a26.26,26.26,0,0,0-9.73,6A26.46,26.46,0,0,1,317.7,538c-2.69,1-5.39,2.12-8,3.21l-3.9,1.62a2.32,2.32,0,0,0-.41.22c-.37.22-.59.33-.92.15a.94.94,0,0,0,0-.16,3.19,3.19,0,0,1-.12-.6c-.05-1-.08-2-.11-2.93-.06-1.85-.12-3.77-.29-5.64a21,21,0,0,1,1.77-10.65l.44-1c.47-1.07,1-2.17,1.48-3.25,1-2.11,2-4.21,3-6.32,1.64-3.41,3.33-6.94,5-10.42a39.47,39.47,0,0,1,9.29-12.81,59.55,59.55,0,0,1,7.25-5.31c.66-.44,1.33-.87,2-1.32l2-1.34c1.77-1.17,3.62-2.39,5.36-3.68,5.74-4.25,8.42-9.81,8-16.52,0-.33,0-.66-.08-1a24.88,24.88,0,0,1-.09-3.95,72.82,72.82,0,0,0-.37-15,21.12,21.12,0,0,1,2.54-12.57,67.45,67.45,0,0,0,3.43-7.87,20.4,20.4,0,0,1,7.28-9.7,82,82,0,0,1,7.18-4.6,66,66,0,0,0,9.47-6.43,55.36,55.36,0,0,1,9.62-6,13.51,13.51,0,0,1,7.09-1.6,9.52,9.52,0,0,0,4.26-.83,20.24,20.24,0,0,0,6.59-4.38,49.4,49.4,0,0,1,11.05-8.25,17.75,17.75,0,0,0,3.89-2.66l.86-.82c3.54-3.4,7.2-6.92,9.95-11.1a31.51,31.51,0,0,1,7.43-7.46l1.09-.82c.87-.65,1.75-1.31,2.6-2a7,7,0,0,0,2.63-4.75c.37-3.75,2.24-6,5.7-6.92a5.07,5.07,0,0,0,1.72-.76l.38-.27a21.59,21.59,0,0,0,3-2.42,3.59,3.59,0,0,0,.83-4.58,4.25,4.25,0,0,0-4.25-2,8.16,8.16,0,0,0-2.47.69,12.68,12.68,0,0,0-1.28.63c-.31.17-.64.35-1,.5a12.58,12.58,0,0,1-9.2.63,44.31,44.31,0,0,1-6.39-2.82l-.4-.2a4.85,4.85,0,0,1-2.35-2.24l3.9-.71c3.51-.63,6.92-1.25,10.34-1.85a13.07,13.07,0,0,1,5.55.14l1.2.3c1.87.46,3.81.95,5.68,1.52a20.1,20.1,0,0,0,11.07.44l1.79-.43a35.11,35.11,0,0,0,3.42-.89,16.09,16.09,0,0,1,9.67,0c.71.2,1.44.44,2.14.68.85.28,1.74.58,2.63.81l.73.2a34.33,34.33,0,0,0,5.22,1.09c3.59.38,7.26.57,10.81.75h.25c8.8.45,16.08-3,22.23-10.51a42.17,42.17,0,0,0,5.71-9.53l.91-2,.38-.83.78-.13c.65-.11,1.28-.22,1.91-.3l1.84-.26c1.94-.27,3.95-.55,5.94-.75a20.24,20.24,0,0,0,11.9-5.61c3.55-3.28,7.89-5.39,11.71-7.25a6.73,6.73,0,0,1,3.3-.67c3.3.26,6.49.79,9.87,1.35l1.6.26.27,1.14c.23.91.43,1.77.62,2.62a25.39,25.39,0,0,0,2.64,7.08c3.07,5.49,7.46,8.54,13.44,9.32,4.55.6,9-.26,13.31-1.09l.23-.05a2.34,2.34,0,0,0,.74-.33,1.4,1.4,0,0,0,.65-1.87,5.32,5.32,0,0,0-1-1.55,44.85,44.85,0,0,1-4.59-5.75c-.63-.88-1.28-1.79-2-2.66a80.12,80.12,0,0,0-5.41-6.19,12.14,12.14,0,0,0-7.42-3.6,23.25,23.25,0,0,0-7.55,0,3,3,0,0,1-2.75-.63c-.42-.36-.85-.71-1.35-1.1l-.37-.31.15,0a4.12,4.12,0,0,1,.84-.26l3.17-.38c1.51-.17,3.08-.36,4.62-.58a17.54,17.54,0,0,1,7,.14,27.21,27.21,0,0,0,8.78,6.5,85.54,85.54,0,0,0,10.37,3.9c7.8,2.27,15.77,1.3,23.7-2.85a22.34,22.34,0,0,0,8.64-7.51c1.38-2.12,2.69-4.32,4-6.45l.15-.24c1.05-1.76,2.08-3.53,3.11-5.3l1.94-3.3c.12-.2.27-.41.41-.61.57-.79,1.28-1.77.39-2.88-.72-.9-1.72-.6-2.53-.36a6.49,6.49,0,0,1-.76.19,9.27,9.27,0,0,0-1.18.3,5.41,5.41,0,0,1-2.34.33l.46-.72c.45-.71.88-1.38,1.34-2a74.36,74.36,0,0,0,7.38-12.25l0-.12a8.45,8.45,0,0,0,.71-1.93,1.42,1.42,0,0,0-1.11-1.67,3.24,3.24,0,0,0-1.15-.09l-.75.05c-2.79.17-5.67.35-8.51.56a41.41,41.41,0,0,0-10.9,2.15l-.21.07c-3.24,1.14-6.6,2.32-9.86,3.56a59.92,59.92,0,0,0-14.74,8.08c-1.52,1.15-3,2.33-4.55,3.49s-2.81,2.17-4.22,3.25l-1.38,1c-2.52,1.92-5.14,3.91-7.77,5.77a8.7,8.7,0,0,1-7.2,1.64,10.33,10.33,0,0,0-5.06.35,38.45,38.45,0,0,1-5.56,1c-2.95.36-6,.69-8.87,1l-5,.55a20.6,20.6,0,0,0-11.44,4.95c-1.43,1.24-3,2.41-4.46,3.55l-.84.65a24.36,24.36,0,0,1-9.17,4.37,6.52,6.52,0,0,1-1.11.13l-.34,0c0-.09.07-.18.1-.26a4,4,0,0,1,.35-.81,24.42,24.42,0,0,1,8.48-8.3,25.06,25.06,0,0,1,6.25-2.35c5.14-1.42,8.22-4.86,9.15-10.22a20.47,20.47,0,0,0-.56-9,9.4,9.4,0,0,1,0-5.79c1-2.88.26-5.31-2.32-7.22a30.41,30.41,0,0,0-3-1.94c-.44-.25-.89-.47-1.34-.68a13.25,13.25,0,0,1-1.79-1,5.83,5.83,0,0,1-2.13-2.08,21.18,21.18,0,0,0-3.87-6.26l3.14-4.2c2.88-3.85,5.59-7.49,8.42-11.16a23.12,23.12,0,0,1,3.91-4c1.54-1.22,3.2-2.34,4.81-3.44.82-.56,1.64-1.11,2.46-1.69,2-1.44,4.09-2.89,6.08-4.38.89-.67,1.78-1.37,2.64-2.06,1.42-1.13,2.9-2.31,4.44-3.33A102.76,102.76,0,0,1,610.94,196a59,59,0,0,1,7.25-1.71c8.74-1.47,16,.27,22.3,5.32a43,43,0,0,1,3.67,3.33,21.56,21.56,0,0,0,5.85,4.19l3.2,1.58a23.16,23.16,0,0,1,8.57,7.15,17.34,17.34,0,0,0,13.34,7,32.45,32.45,0,0,0,5.4-.21l.7-.06a7,7,0,0,0,2.45-.78,2,2,0,0,0,1-1.2,2.15,2.15,0,0,0-.2-1.67,10.53,10.53,0,0,0-1-1.3l-.14-.15a44.54,44.54,0,0,0-8.71-7.47,11.33,11.33,0,0,0-9.08-1.84c-.52.11-1.06.18-1.64.26l-.68.09-1.4-2,.63-.17a6.63,6.63,0,0,1,1.59-.3h1.41c2.46,0,5,0,7.47.17a72.71,72.71,0,0,1,12.36,2.56l.14,0a36.45,36.45,0,0,1,12.37,5.89,9.78,9.78,0,0,0,5.79,2l1.68.05.67,0c.12.17.25.33.37.49a14,14,0,0,1,.82,1.18,25.54,25.54,0,0,0,5.44,6.22c4.18,3.57,8.36,4,13.18,1.42,2.56-1.38,5.06-2.92,7.38-4.38,1.19-.76,2.53-1.6,3-3.24a.28.28,0,0,0,0-.18c0-.09,0-.19-.08-.29a2.1,2.1,0,0,0-.31-.75,53.33,53.33,0,0,0-9.94-10.31,11.66,11.66,0,0,0-11.76-1.81,53.18,53.18,0,0,0-5.85,2.79l-.59.32a12.67,12.67,0,0,0-1.23.76,7.31,7.31,0,0,1-1.83,1l-3.11-2c-2.34-1.52-4.56-3-6.84-4.38a29.25,29.25,0,0,0-20-4.54c-1.28.17-2.56.3-3.54.39-1.51.14-3,.29-4.54.42-2.7.25-5.5.51-8.26.79-2.11.22-3.49-.29-4.46-1.64-2.11-2.92-5-5.11-9.41-7.1a26.66,26.66,0,0,1-3.18-1.86l-1.06-.68-.18-.11a1.17,1.17,0,0,1-.76-1.05l.49-.32,1.54-1c5.57-3.54,8.78-7.57,10.09-12.69a10.63,10.63,0,0,1,2.84-4.7c7.27-7.65,12.16-14,15.85-20.68a67.86,67.86,0,0,1,3.95-6.07c.59-.84,1.18-1.67,1.75-2.51a6.54,6.54,0,0,1,.9-1l3.51-3.47,1.21-1.18.85.21c.66.16,1.29.31,1.91.43,5.48,1,9.77-.93,12.76-5.7a37.11,37.11,0,0,0,3.92-10,2.09,2.09,0,0,0-.29-2.06,1.93,1.93,0,0,0-1.9-.34c-3.81,1-7.54,2-10.68,2.9a10.07,10.07,0,0,0-7,7c-.25.76-.49,1.52-.74,2.28l-.31,1a9.45,9.45,0,0,0-1.52.78,5.62,5.62,0,0,1-2.72,1l.06-.27c.08-.4.16-.76.24-1.13a64.93,64.93,0,0,0,1.77-13.11l.06-1.66c0-1.79.1-3.64.24-5.46a18.17,18.17,0,0,0-.43-6.48,13.77,13.77,0,0,1,.19-7.58,52.24,52.24,0,0,0,1.39-6.3,15,15,0,0,1,4.59-8.85c.79-.76,1.61-1.52,2.41-2.25a63.48,63.48,0,0,0,4.53-4.46,19.89,19.89,0,0,1,8.87-5.48,5.8,5.8,0,0,1,3-.33c5.8.88,10.59-1.38,14.25-6.7a17.9,17.9,0,0,0,2.94-7c.7-3.78,1.24-7.63,1.69-10.94a2.4,2.4,0,0,0-.44-2,2.23,2.23,0,0,0-1.85-.58,58.78,58.78,0,0,0-8.53,1A15.78,15.78,0,0,0,698.79,52c-.72,1.68-1.53,3.37-2.31,5-.49,1-1,2-1.45,3.07a11.48,11.48,0,0,1-4.85,5.3,25.54,25.54,0,0,0-6.91,5.74c-.88,1.06-1.81,2.11-2.71,3.12l-1.75,2c-3.91,4.52-6.21,8.41-7.45,12.6a10.9,10.9,0,0,1-.48,1.3l-.19.45a16,16,0,0,1-5.54-2.71,27.91,27.91,0,0,0-9.52-4.17c-1.75-.42-3.49-.73-5.33-1.06l-2.18-.39,0-.09a4.47,4.47,0,0,1,.25-.81,42.58,42.58,0,0,0,3.05-10.68c.87-4.82,1.63-8.48,2.44-11.87A69.36,69.36,0,0,1,656.35,51a12.08,12.08,0,0,1,4.79-6.25,51.38,51.38,0,0,0,4.39-3.09,25.82,25.82,0,0,0,3.7-3.4c1.11-1.31,1.53-2.42,1.29-3.38s-1.2-1.8-2.9-2.47a12.07,12.07,0,0,0-3.17-.76,17.69,17.69,0,0,0-2.18-.06c-.47,0-.94,0-1.4,0a3.19,3.19,0,0,0-.54.06c-.4.08-.59.09-.74-.13.13-.48.27-1,.41-1.43a36.65,36.65,0,0,0,.91-3.61,2.06,2.06,0,0,0-.49-2,2,2,0,0,0-2-.28c-2.35.69-4.71,1.51-7,2.3l-.81.28c-4,1.37-7.83,2.75-10.77,3.8-.49.18-1,.34-1.47.51a47.46,47.46,0,0,0-4.55,1.76,42.14,42.14,0,0,1-9.43,3c-3.85.78-7.75,1.65-11.52,2.49L607,39.67a4.66,4.66,0,0,1-.89.08h-.22l.25-1.13c.22-1,.42-1.89.63-2.82a32.61,32.61,0,0,0,.05-14.64c-.45-2-.76-4.05-1.06-6.05l-.19-1.31q-.5-3.21-.94-6.42c-.18-1.28-.36-2.55-.55-3.82L604,3.09a6.55,6.55,0,0,0-.37-1.69c-.2-.49-.72-1.27-1.32-1.39S601,.54,600.65.9A4,4,0,0,0,600,2.07c-.06.16-.13.33-.2.49l-.93,2c-.69,1.48-1.39,3-2.09,4.45A62.37,62.37,0,0,0,592,23.63c-1.13,5.86-2,10.75-1.86,16a15.46,15.46,0,0,1-3.45,10.06c-2.49,3.2-4.92,6.64-7.23,10.21a33.52,33.52,0,0,0-5.06,13.75c-.78,5.84.88,10.73,4.91,14.52,1.54,1.45,3.09,3,4.6,4.48s2.3,2.63,2.43,4.3c-.32.73-.63,1.45-.94,2.18-.71,1.63-1.45,3.31-2.12,5-1.9,4.73-2.58,8.76-2.14,12.68a15.46,15.46,0,0,1-1,7.22l-2.46,6.72c-1.52,4.17-3.08,8.47-4.71,12.67-1.92,5-4.89,8.33-9.06,10.29-.66.3-1.3.64-1.92,1s-1.26.67-1.9,1c-.47.21-1,.37-1.53.56l-.6.19-6.79-20.45a22.25,22.25,0,0,0,2.59-15.45c-1-5.55-3.66-9.6-8-12.39a23.64,23.64,0,0,0-10.16-3.39,1.32,1.32,0,0,0-.81.27l-.21.11a.28.28,0,0,0-.15.15c0,.1-.09.19-.13.27a1.26,1.26,0,0,0-.2.58l-.06,1.3c-.08,1.92-.16,3.89-.17,5.84a25.86,25.86,0,0,1-1,7.32,23.87,23.87,0,0,0-.87,4.24,12.25,12.25,0,0,0,8.54,13.27c.68.23,1.35.49,2,.74l.77.29c.05.16.1.3.15.44a6.65,6.65,0,0,1,.25.91,84.77,84.77,0,0,0,6.59,20.75,16.28,16.28,0,0,1,1.48,6.45c0,1.15.08,2.3.12,3.44.07,1.57.13,3.18.17,4.76l.06,2.85c.2,9,.41,18.31-.59,27.43a28.71,28.71,0,0,1-2.16,9.24l-3.62,7.77c-2,4.24-4,8.62-6,12.92-.89,1.87-1.91,3.71-2.9,5.5l-.63,1.16a4.45,4.45,0,0,1-1.13,1.52,45,45,0,0,0-6.45,5.67l-1.54,1.52a12.78,12.78,0,0,1-8.32,4h-.15c-.47,0-.81,0-1.05-.4,3.07-3.25,4.63-7.37,6.14-11.36.56-1.47,1.12-2.93,1.69-4.31a24.89,24.89,0,0,1,5.78-8.77c6-5.89,9-13.34,9.1-22.79a28.38,28.38,0,0,0-7.1-19.54,27.45,27.45,0,0,1-5.22-8.74,21.47,21.47,0,0,0-4.23-7.09,12.73,12.73,0,0,1-3.34-8.94c0-1.55,0-3.25.12-5.35a14.38,14.38,0,0,0-11.18-14.68,43.79,43.79,0,0,0-4.93-1,42.09,42.09,0,0,0-14.66.5c-5.64,1.25-10.75,2.46-15.64,3.69-5.37,1.35-9.55,1.35-13.55,0a12.92,12.92,0,0,0-8.25.26c-5.85,1.83-10.72,5.46-15.34,11.44a60.43,60.43,0,0,0-7.07,12.84,6.45,6.45,0,0,1-.69,1.12l-.14.19c0-.18,0-.36,0-.52,0-.8.05-1.42,0-2,0-.91-.07-1.82-.09-2.72-.08-2.4-.15-4.86-.46-7.27a13.81,13.81,0,0,0-7.17-10.81,34.92,34.92,0,0,0-6.22-2.77c-1.92-.62-3.92-1.09-5.86-1.54-.93-.22-1.86-.44-2.8-.68-.6-.15-1.2-.33-1.82-.51l-.67-.2c0-.25,0-.49,0-.73,0-.61.07-1.14.15-1.66a223.59,223.59,0,0,0,3-29.14,34.26,34.26,0,0,0-.71-8.22,33.66,33.66,0,0,1-.74-5.59,10.92,10.92,0,0,0-2-5.79,38.46,38.46,0,0,1-2.6-4.6,3.48,3.48,0,0,1-.25-1.22c0-.16,0-.32-.05-.48a32.07,32.07,0,0,1,7.94-1.39,15.47,15.47,0,0,0,9.86-4.07A40.26,40.26,0,0,1,422,78a43,43,0,0,0,11.87-11.9,63.89,63.89,0,0,0,10.66-35.53c0-4.71.29-9.5.59-14.14l.12-1.88a35.61,35.61,0,0,1,.53-3.83c.15-.81.3-1.66.41-2.5a2,2,0,0,0-.57-1.85,2.11,2.11,0,0,0-2-.24c-.42.13-.83.3-1.22.46l-.47.2A57.85,57.85,0,0,0,420.2,22.24c-.28.32-.6.62-1,1l-.33.32A18.53,18.53,0,0,1,417,19.34c-.22-.63-.44-1.27-.7-1.9a19,19,0,0,1-.69-2.22,9.58,9.58,0,0,0-1.72-4,.3.3,0,0,0-.22-.1,2.29,2.29,0,0,0-2.2,1.72c-.27.68-.54,1.36-.82,2-.86,2.16-1.76,4.39-2.49,6.64A45.07,45.07,0,0,1,404,30.87a163.43,163.43,0,0,0-8.41,16.45l0,.09a62.36,62.36,0,0,0-2.71,7c-2.83,8.73-2.25,17.7,1.71,26.65l.65,1.49.1.24c-.31.87-.63,1.71-.93,2.51a48.15,48.15,0,0,0-1.76,5.19c-1,4-1.85,8.08-2.66,12l-.26,1.22a19.62,19.62,0,0,0-.47,4.31c.1,4.79.36,10.35,2.12,15.6a18.56,18.56,0,0,1-.14,12.39,5.05,5.05,0,0,1-.5,1l-.22.38-.65-.73c-.59-.67-1.11-1.27-1.64-1.85L386.49,133c-1.48-1.66-3-3.37-4.61-5a11.66,11.66,0,0,0-3.89-2.65c-6.8-2.53-13-2.74-19.06-.65-6.6,2.29-12.2,6.65-18.19,14.16-3.27,4.11-5.42,8.95-7.49,13.64l-.5,1.13c-.23.51-.45,1-.68,1.53-.57,1.32-1.17,2.68-1.8,4a8.75,8.75,0,0,1-5.86,5,21.76,21.76,0,0,0-2.4.79,8.42,8.42,0,0,0-4.91,4.72,22,22,0,0,0-1.86,7,55,55,0,0,0-.21,6.81,15.58,15.58,0,0,1-3.3,10.47l-.26.36c-1,1.28-2,2.6-3,3.85a13.62,13.62,0,0,0-3.1,7.27,20.35,20.35,0,0,0,.84,9.29,38.16,38.16,0,0,0,4.21,8.72,46.91,46.91,0,0,0,10.37,10.85l.39.29a2.21,2.21,0,0,1,1,1.14c-4.2,1.34-7.85.9-11.16-1.37a36.47,36.47,0,0,1-4.38-3.55c-5.39-5.07-11.18-7.65-17.71-7.89l-1.82-.08c-.92,0-1.88-.09-2.83-.11a112.73,112.73,0,0,1-14.2-1,32.16,32.16,0,0,0-5-.33,3.74,3.74,0,0,0-2.78,1,3.37,3.37,0,0,0-.76,2.63,32.4,32.4,0,0,1-.52,6.84c-.07.42-.13.84-.19,1.26-.19,1.38-.42,2.83-.7,4.58a28,28,0,0,0,4.72,20.91,54.35,54.35,0,0,0,6.51,7.63,34.23,34.23,0,0,1,8,12.41c.41,1.14.88,2.27,1.32,3.33A25,25,0,0,0,291,294.07c1.56.94,3.24,1.74,4.86,2.51.72.34,1.43.69,2.14,1.05l2.76,1.36c1.93.94,3.92,1.91,5.83,2.95a16,16,0,0,1,8.29,10.34,22.73,22.73,0,0,0,9.4,12.88c1.27.88,2.6,1.7,3.88,2.51.55.33,1.09.67,1.63,1,.07.56.13,1.12.19,1.67a33.23,33.23,0,0,0,.57,3.95c.27,1.2.65,2.39,1,3.53.24.75.5,1.52.71,2.28a24.13,24.13,0,0,1,.52,2.5l.11.62a4,4,0,0,1-.47,2.55c-1.33,2.71-1.16,3.2,1.58,4.81.18.11.35.24.55.39l.24.18c.66,5.89,2.36,11.64,4,17.2l.32,1.08a72.27,72.27,0,0,1,2.42,11.83c.33,2.73.73,5.5,1.12,8.19.19,1.27.37,2.55.55,3.83l.06.42a6.62,6.62,0,0,1,.14,1.3c-.07,4.68-1.42,9.18-2.73,13.54l-.51,1.69a1,1,0,0,1-.67.71,1.23,1.23,0,0,1-1.16-.34c-.38-.34-.75-.72-1.1-1.08s-.77-.8-1.19-1.17a1.48,1.48,0,0,0-1.27-.37,1.43,1.43,0,0,0-1,.73,6.29,6.29,0,0,0-.78,2.08,19.27,19.27,0,0,0-.19,4,32.77,32.77,0,0,1-.57,8.8,55.87,55.87,0,0,0-.62,5.59l-.06.82a7.78,7.78,0,0,0,.72,3.95c2.51,5.39,3.61,11.48,3.59,19.73a14.78,14.78,0,0,1-3.06,9.11c-4.17,5.59-9.41,12-16.58,16.92a35.13,35.13,0,0,0-10.45,11.26,39.24,39.24,0,0,1-4.52,5.88c-.79.89-1.33,1.28-1.85,1.31s-1.17-.32-2.2-1.26c-.36-.33-.71-.69-1-1l-.46-.48q-.36-.35-.69-.72c-.51-.53-1-1.08-1.58-1.58a3.05,3.05,0,0,0-4.52.07,4.11,4.11,0,0,0-1.22,4.17c.3,1.56.56,3.12.83,4.68.23,1.37.47,2.74.72,4.1l.13.72a36,36,0,0,0,.91,4.19,35.09,35.09,0,0,1,1.36,13.65c-.36,3.54-.73,7.65-.86,11.77a33.79,33.79,0,0,1-1.48,9l-.27.87c-.4,1.29-.81,2.61-1.17,3.93-1.65,6.17-4.9,11.45-7.86,15.8-2,3-4.33,5.76-6.57,8.47-1.33,1.62-2.71,3.29-4,5a111,111,0,0,1-10.5,12.08,25.38,25.38,0,0,0-5,7,27.44,27.44,0,0,1-3,4.75c-2.49,3.13-5.8,7.24-9.33,11.25-1.58,1.79-3.36,3.48-5.08,5.12L235,621.12a3.28,3.28,0,0,1-.9.5l-.28.12-1-5.49.71-.44c.65-.4,1.32-.81,2-1.21a49.74,49.74,0,0,0,17.69-17c7.49-12.14,8.39-25.34,2.67-39.24-.21-.52-.43-1-.65-1.54a22.21,22.21,0,0,1-2-6.46,1.59,1.59,0,0,0-.21-.59l-.08-.15a1.24,1.24,0,0,0-.82-.67,1.35,1.35,0,0,0-1.14.19,5.76,5.76,0,0,0-.86.72c-2.62,2.75-5.3,5.77-6.67,9.74a2.5,2.5,0,0,1-.44.69l-.13.15-1.93-.83a.29.29,0,0,0-.32,0c-.23.23-.45.44-.68.65a15.22,15.22,0,0,0-1.38,1.41c-.75.93-1.48,1.89-2.2,2.82-.92,1.21-1.88,2.46-2.87,3.64-4,4.76-6.31,10.41-7.89,14.81-3.4,9.41-2.79,17.81,1.88,25.68a16.94,16.94,0,0,1,1.45,3.19,3.81,3.81,0,0,1-1.3,4.74,22,22,0,0,0-5.57,6.6,35.58,35.58,0,0,0-1.58,3.3c-.31.73-.64,1.48-1,2.2-1.3,2.65-2.65,5.32-3.95,7.9L214,639.84c-1.76,2.23-3.51,4.52-5.2,6.74-3.34,4.38-6.79,8.9-10.49,13.09-2.09,2.37-4.13,4.85-6.1,7.26l-1.24,1.51a74.62,74.62,0,0,1-9.79,10.28c-1.35,1.11-2.64,2.33-3.88,3.51l-.89.83-3.73,3.52c-7.29,6.86-14.84,14-22.76,20.36-3.81,3.08-7.89,6.24-12.12,9.4-9.84,7.34-18.57,13.79-26.69,19.72-3.42,2.49-7.07,5.11-10.88,7.41A158,158,0,0,0,80.5,757a118.17,118.17,0,0,1-13.33,9.5c-1.44.89-2.83,1.84-4.14,2.83-8.71,6.57-16.49,14.41-24,22l-2.73,2.74a9.9,9.9,0,0,0-.74.86c-.22.27-.42.53-.65.77-.52.53-1,1.07-1.54,1.6-1.34,1.42-2.74,2.9-4.22,4.2-1.66,1.47-3.44,2.86-5.16,4.2-.87.68-1.75,1.37-2.61,2.06l-2.2,1.76c-2,1.61-4.12,3.28-6.11,5-3.09,2.68-6.17,5.5-9.15,8.21l-2,1.83A15.72,15.72,0,0,0,.59,826l-.51.58A.25.25,0,0,0,0,826.79ZM362.55,390.42c4.54-5.83,8.34-10.69,12.33-15.68.9-1.12,1.88-2.16,2.92-3.26.45-.48.9-1,1.35-1.45a38.24,38.24,0,0,0,9.93.44c1-.05,2.09-.09,3.13-.11a61.83,61.83,0,0,1,6.25.3l2.26.17a1.3,1.3,0,0,1,.51.21l.16.09c-3.61,4.43-7,7.08-11,8.56a28.41,28.41,0,0,0-7.34,3.76l-1.34,1c-1,.73-1.94,1.48-2.95,2.15l-.79.53a31.63,31.63,0,0,1-4.64,2.75,56.69,56.69,0,0,0-11.21,7l-.65.51a14.93,14.93,0,0,1-2.86,1.89c0-.07,0-.14,0-.21a4.64,4.64,0,0,1,0-.88A19.36,19.36,0,0,1,362.55,390.42ZM367.36,365a23.82,23.82,0,0,0-5.12,6.49c-1.06,1.76-2.19,3.62-3.45,5.38a22.39,22.39,0,0,1-4.72,4.88c-.09-.55-.17-1.05-.24-1.52-.19-1.21-.34-2.25-.58-3.25l-.06-.3a54.36,54.36,0,0,0-1.62-5.9c-.79-2.22-1.69-4.45-2.55-6.61-.49-1.23-1-2.46-1.46-3.7a35.74,35.74,0,0,1-2.28-9.16l.46-.08a5.08,5.08,0,0,1,1.29-.14,17.59,17.59,0,0,1,10.22,4.19c1.25,1,2.48,2.15,3.68,3.23l1.66,1.49,5,4.4,0,.15A1.08,1.08,0,0,1,367.36,365ZM651.85,159.91c-.94,3.38-2.94,6.09-5.09,8.8-1.88,2.38-3.86,4.75-5.79,7l-1.48,1.77c-.61.73-1.29,1.42-1.93,2.06a14.78,14.78,0,0,1-8.86,4.55c-2,.24-4,.53-5.9.8-2.93.42-6,.86-9,1.14a37.23,37.23,0,0,0-20.93,8.62,50.33,50.33,0,0,1-13.3,8.06A47.38,47.38,0,0,0,565.2,212l-.51.48a15.55,15.55,0,0,1-3.34,2.6c0-.94,0-1.84,0-2.71,0-2.16,0-4.21,0-6.22a39.54,39.54,0,0,0-1.06-10.35,17.75,17.75,0,0,1-.14-8.35,27.18,27.18,0,0,0,.3-9,44.15,44.15,0,0,1-.17-5c0-.69,0-1.39,0-2.08a5.16,5.16,0,0,1,2-4.12c1.43-1.27,2.85-2.56,4.26-3.84s3.16-2.87,4.76-4.29a51.24,51.24,0,0,0,7-7.16,30.35,30.35,0,0,0,6.44-14.64,60.11,60.11,0,0,1,1.78-7.73c.18-.65.36-1.3.53-1.94a12.3,12.3,0,0,1,3.43-5.59l1.77-1.76c3.4-3.43,6.39-6.59,8.55-10.57A14,14,0,0,1,602.1,108c.2-.25.4-.51.6-.79l.34.07a3.22,3.22,0,0,1,1,.33,12.43,12.43,0,0,0,7.7,1.74,55.06,55.06,0,0,0,20.81-4.95c1.09-.49,2.16-1.05,3.19-1.59s1.9-1,2.88-1.45c3-1.4,5.52-2.54,8.13-3.59a23.44,23.44,0,0,1,11-1.82,20.19,20.19,0,0,0,10.9-2,10.28,10.28,0,0,1,1-.4.56.56,0,0,1,.13,0,.27.27,0,0,0,.09,0c.34.18.33.44.22,1,0,.07,0,.14,0,.2a17,17,0,0,0,.53,8.25,10.7,10.7,0,0,1,.49,3.76c-.25,4.52-.58,9.11-.9,13.55l-.27,3.89a7.58,7.58,0,0,1-.2,1.36l-1,3.94c-1,3.68-2,7.48-3.07,11.18a19.73,19.73,0,0,1-5.25,8.23c-1.52,1.56-3,3.19-4.48,4.78l-.88,1A13.12,13.12,0,0,0,651.85,159.91ZM421.35,526.07q.13.28.3.57a32.32,32.32,0,0,1-9.08,2.65A31.38,31.38,0,0,0,399.12,534a13.31,13.31,0,0,1-8,2.14,57.54,57.54,0,0,0-14.26,1.09c-3.79.78-7.58.16-11.25-.43-3.15-.51-6.35-1.13-9.44-1.73l-2.82-.54a7.66,7.66,0,0,1-1.1-.33l-.24-.09v0a.82.82,0,0,1,.16-.29,6,6,0,0,1,.7-.44l.49-.29A109.51,109.51,0,0,1,372,523.48,30.76,30.76,0,0,0,384.93,514a13.51,13.51,0,0,1,4.28-3.53,27.91,27.91,0,0,0,7.23-5.9l.51-.54c.48-.51,1-1,1.42-1.6,2.71-3.51,6.31-6.15,9.79-8.7l1.41-1a12.14,12.14,0,0,1,8-2.75,9.87,9.87,0,0,1,0,4.19c0,.24-.07.47-.1.71-.17,1.2-.35,2.41-.53,3.61-.24,1.59-.48,3.24-.69,4.86-.57,4.53-.15,9.24,1.39,15.3a17.16,17.16,0,0,0,2.83,5.84h0A13.06,13.06,0,0,1,421.35,526.07Z" fill="#ffebdc"/></svg>