<svg xmlns="http://www.w3.org/2000/svg" width="467.15" height="712.81" viewBox="0 0 467.15 712.81"><path d="M441.47,712.23l1.89.57a.26.26,0,0,0,.15,0l7.31-3a.18.18,0,0,0,.07,0,.15.15,0,0,0,.06-.09.23.23,0,0,0,0-.18c-.23-.35-.12-.65.07-1.1l.08-.19c.2-.48.4-1,.61-1.44.44-1,.9-2.12,1.27-3.21a9.88,9.88,0,0,0,.6-3.14c0-4-.92-7-2.95-9.49-.12-.14-.24-.3-.35-.45l-.12-.16a46.85,46.85,0,0,1-6.95-13.46c-.64-1.9-1.39-3.8-2.11-5.63-.4-1-.79-2-1.17-3l-.54-1.42c-.74-2-1.51-4-2.19-6-.6-1.75-1.17-3.54-1.72-5.28s-1.06-3.33-1.61-5c-.63-1.87-1.36-3.72-2.07-5.52l-.16-.42a59.6,59.6,0,0,1-2.61-9.07c-.48-2.15-1.08-4.31-1.65-6.4-.28-1-.56-2-.82-3l-.42-1.56c-.37-1.32-.74-2.69-1-4-.59-2.89-1.16-5.84-1.72-8.69-.81-4.19-1.65-8.5-2.55-12.75a99.86,99.86,0,0,0-6.31-19.28,58.34,58.34,0,0,1-2.62-7.14l-.45-1.55A46.8,46.8,0,0,0,407.26,560a22.75,22.75,0,0,1-2.4-6.32,89.24,89.24,0,0,0-4.05-12.28,19,19,0,0,1-1.41-5.53,11.52,11.52,0,0,0-1.57-5.37,12.87,12.87,0,0,1-2.05-7.36,5.16,5.16,0,0,0-.1-.88,2.21,2.21,0,0,1,.09-1.54l.55-.14,1.38-.36a17.1,17.1,0,0,0,11.55-9.12c2.44-4.63,2.86-9.86,1.25-15.52-.65-2.33-1.49-4.64-2.3-6.87l-.32-.88c-.46-1.27-.87-2.07-1.48-2.17s-1.26.54-2.11,1.6a102.2,102.2,0,0,1-8.33,9.47,24.89,24.89,0,0,0-2.58,3,16.42,16.42,0,0,0-2.51,15.65,3,3,0,0,0,.2.49,3.13,3.13,0,0,1,.33,1.27l-.12,0a1.78,1.78,0,0,1-.5-.27,21.46,21.46,0,0,1-6.11-9.25,157.75,157.75,0,0,0-8.58-20.13l-.31-.6c-1.07-2-2.17-4.11-3-6.24-.72-1.77-1.29-3.63-1.84-5.44-.18-.6-.37-1.2-.55-1.8A97.83,97.83,0,0,0,357.94,447c-2.68-3.88-5.81-8.48-8.76-13.14A58.13,58.13,0,0,1,343,421.11a24,24,0,0,1,.57-17.09,55.1,55.1,0,0,1,4.24-8.43,24,24,0,0,0,3.34-7.78,13.9,13.9,0,0,1,2.58-5.62c1.08-1.43,2.2-2.86,3.28-4.25.58-.73,1.15-1.47,1.72-2.21l1.8-2.33,2.06-2.67a6.94,6.94,0,0,0,1.3-5.64,14.09,14.09,0,0,0-.36-1.57,8,8,0,0,1,.21-5c.51-1.46,1-3,1.41-4.42l.57-1.86a6,6,0,0,0-.26-4.53c-.44-.93-.95-1.85-1.44-2.73l-.16-.29a7.08,7.08,0,0,1-.63-6.27l.48-.06,1.06-.12a31.73,31.73,0,0,0,9.44-2.49,32.36,32.36,0,0,0,13-9.76c1.36-1.68,2.5-3,3.59-4.18,1.47-1.57,2.93-3.57,2.61-6.51a4.55,4.55,0,0,1,2.56-4.58,10,10,0,0,0,2.35-1.77,8.93,8.93,0,0,0,1.72-2.69,2.37,2.37,0,0,0,0-2,2.76,2.76,0,0,0-1.76-1.37,3.63,3.63,0,0,0-3.21.45,14,14,0,0,0-1.47,1.15,8.48,8.48,0,0,1-4.63,2.07,15,15,0,0,1-9.49-1.94,1,1,0,0,1-.28-.38h0l2.53-1c2.13-.84,4.15-1.62,6.17-2.48a14.17,14.17,0,0,1,6.58-1.2c1.3.09,2.63.19,3.93.31A13.84,13.84,0,0,0,406,298.7c.58-.27,1.17-.53,1.75-.78.85-.38,1.73-.76,2.57-1.21a10.92,10.92,0,0,1,6-1.32c.75,0,1.51.12,2.25.19s1.29.13,1.94.17l1,.08a16.82,16.82,0,0,0,3.25.07c3.11-.35,6.26-.84,9.31-1.31l.34-.06a16.87,16.87,0,0,0,10.18-5.88,24.54,24.54,0,0,0,4.88-8.46,49.82,49.82,0,0,0,1.7-7.1l.42-2.17a47.64,47.64,0,0,1,1.62-6.33,15.9,15.9,0,0,1,6.31-8.06,15.56,15.56,0,0,1,1.75-1l.77-.39a8.86,8.86,0,0,0,5.2-8.7,14.86,14.86,0,0,0-1.56-6.17,8.19,8.19,0,0,1-1-4.94,3.9,3.9,0,0,0-2.41-4.28,16.71,16.71,0,0,0-3.75-1.37,6.12,6.12,0,0,1-4.45-3.05,2.62,2.62,0,0,0-.23-.32l-.11-.13a5.44,5.44,0,0,0-5.51-2.24,9.63,9.63,0,0,0-5.44,2.71,31.67,31.67,0,0,0-4.28,5.39,27,27,0,0,1-2.56,3.28,6.38,6.38,0,0,1-4.47,2,1.22,1.22,0,0,1,.11-.38,21.07,21.07,0,0,0,2.32-7.32c.1-.57.19-1.14.29-1.7l.33-1.94a20.8,20.8,0,0,1,3.31-8.68,22.77,22.77,0,0,0,3.36-15.69,22.1,22.1,0,0,0-8.43-15l-.42-.34-.4-.32a13.4,13.4,0,0,1-3.33-3.6,23.29,23.29,0,0,0-5.61-6.31,7.86,7.86,0,0,1-2.95-5c-.13-.69-.27-1.38-.41-2.07-.17-.84-.34-1.72-.49-2.58a10.43,10.43,0,0,0-9.19-8.52,26.18,26.18,0,0,0-4.77-.07,29.86,29.86,0,0,0-10.27,2.45c-3.56,1.61-7.39,3.35-11.25,5.18a16.86,16.86,0,0,1-9.57,1.85,8.41,8.41,0,0,0-5,1,20.7,20.7,0,0,0-8.08,7.14,33.32,33.32,0,0,0-4.4,9.89c-.23.89-.43,1.79-.62,2.65q-.21,1-.45,2c-.07.3-.18.6-.32,1a.08.08,0,0,0,0,0l0-.16c-.09-.52-.16-.9-.25-1.28l-.45-2c-.39-1.7-.78-3.47-1.28-5.17a10.68,10.68,0,0,0-8.06-7.84l-.22-.06a22.39,22.39,0,0,0-3.16-.64c-1.87-.2-3.76-.28-5.53-.36-1.93-.07-3.52-.09-5-.06a16.54,16.54,0,0,1-11.46-4.19,41.12,41.12,0,0,0-4.22-3.2,12.79,12.79,0,0,0-3.83-1.85,19.88,19.88,0,0,0-12.5,1.26,19.68,19.68,0,0,0-7,5.22,36,36,0,0,0-8.41,16l-.75,3.35q-.57,2.57-1.15,5.13a6.75,6.75,0,0,1-3.94,5,7.17,7.17,0,0,0-4.43,6.59l0,.29a20.82,20.82,0,0,0,0,3.16,30.17,30.17,0,0,0,.77,4.71,11.79,11.79,0,0,1-.8,8.56c-.15.3-.29.61-.44.91-.3.64-.61,1.3-1,1.91-2.19,3.84-2.1,7.94.29,12.54a24.71,24.71,0,0,0,8.7,9.51c1.2.77,2.47,1.48,3.69,2.17l1.78,1a.84.84,0,0,0,.21.11c.31.16.44.24.41.46-3.78,1.79-6.41,1.76-10-.12-.54-.28-1.06-.62-1.56-.94A20.39,20.39,0,0,0,259.79,248a82,82,0,0,1-13.27,1.75,16.18,16.18,0,0,0-2.38.32c-2.16.44-2.82,1.42-2.43,3.61.26,1.46.46,2.93.59,4.4.06.77.09,1.56.12,2.32,0,1,.08,2,.19,2.94a29.42,29.42,0,0,0,.92,4.94,20.59,20.59,0,0,0,6.74,10,62.26,62.26,0,0,0,5.07,3.8,25.14,25.14,0,0,1,7.17,7.5c.48.77,1,1.53,1.45,2.21a18.49,18.49,0,0,0,9.56,7.31c1.14.39,2.33.68,3.48,1,.7.16,1.42.34,2.13.53l1.34.37c2,.57,4.18,1.15,6.23,1.83a10.52,10.52,0,0,1,6.24,5.47c2.31,4.56,6.26,7.72,11.72,9.39a12.26,12.26,0,0,0,13-3.21l.3-.31c.76-.75,1.54-1.53,2.33-2.27a9.1,9.1,0,0,1,4.46-2.42,13.17,13.17,0,0,0,5.34-2.39,25.33,25.33,0,0,1,2.19-1.42,16.91,16.91,0,0,1,8-2.79c1.76-.07,2.88-.07,3.56.59s.82,1.55.82,3.18a.73.73,0,0,1-.1.21l-.07.12a5.45,5.45,0,0,0-5,4.47,5.2,5.2,0,0,1-2.3,2.92c-1.35.93-2.77,1.83-4.21,2.68a10.89,10.89,0,0,0-3.49,3.28c-.49.7-1.05,1.38-1.58,2l-.52.63a3.41,3.41,0,0,1-3.3,1.29,20.93,20.93,0,0,0-4.76,0,11.24,11.24,0,0,0-8.17,5.08c-.62.92-1.15,2-.42,3.18a2.62,2.62,0,0,0,2.82.95c1.21-.15,2.43-.39,3.61-.61l1.84-.33a9.54,9.54,0,0,1,1-.12l.37,0v1.18c0,1.84,0,3.57,0,5.31a2.37,2.37,0,0,1,0,.49,1.92,1.92,0,0,1-1.87,1.86c-2.2.26-4.36.47-6,.63a1.18,1.18,0,0,1-.42-.09l-.11,0-.15-1.31c-.12-1-.23-1.92-.33-2.86-.65-6.07-5.6-13.46-13.5-15.21-1.41-.31-2.9-.58-4.42-.79-2.27-.31-4.65-.59-7.07-.82a2.53,2.53,0,0,0-1,.18l-.6.16a.33.33,0,0,0-.15.11.23.23,0,0,0,0,.18l.27.7a6.55,6.55,0,0,0,.52,1.19c.51.85,1.06,1.71,1.59,2.53s.91,1.42,1.35,2.15a4.51,4.51,0,0,1,.37.85l.1.28h-1c-.91,0-1.76,0-2.6.07a18.8,18.8,0,0,0-3.65.59,1.56,1.56,0,0,0-1.22,1,1.64,1.64,0,0,0,.57,1.52c.58.59,1.19,1.17,1.77,1.73s1.34,1.29,2,2a73.19,73.19,0,0,0,8.22,7,19.51,19.51,0,0,0,7.45,3.41,11.07,11.07,0,0,0,5.57,0,30.7,30.7,0,0,1,3.6-.67,3.65,3.65,0,0,1,2.18.33c1,.49,2,1,3,1.4l2,.92.8.37c1.3.61,2.64,1.24,3.92,1.92a9.61,9.61,0,0,1,4.84,6.4,18.13,18.13,0,0,1,.56,4.62A18.92,18.92,0,0,0,329,371a18.53,18.53,0,0,1,2,10.09c-.06.87-.14,2-.18,3.16l-.13,3c-.14,3.32-.28,6.75-.38,10.13a19.34,19.34,0,0,0,1.41,8.34,19.57,19.57,0,0,1,1.4,8.66c-.07,2.12-.06,4.28,0,6.37,0,1,0,2.08,0,3.12a2.09,2.09,0,0,0,0,.34c0,.31.06.49-.16.66h-.12a1.71,1.71,0,0,1-.45-.09l-2-.74c-1.28-.47-2.6-1-3.93-1.38a15.49,15.49,0,0,1-6.78-4.19l-.54-.57c-.59-.63-1.21-1.27-1.8-1.92l-3.47-3.83c-1.87-2.08-3.81-4.22-5.73-6.31a29.27,29.27,0,0,1-6.15-9.93,44.88,44.88,0,0,1-1.6-6.44c-.11-.58-.22-1.16-.34-1.73s-.23-1.17-.35-1.75c-.31-1.55-.62-3.14-1-4.7-1.29-5.11-4.34-8.49-9.05-10.05-.23-.09-.46-.16-.7-.23a17.19,17.19,0,0,1-2.72-1A54.38,54.38,0,0,0,275.82,366a15.62,15.62,0,0,1-7.87-5.26,49.72,49.72,0,0,0-4.42-4.54,15,15,0,0,1-4.58-7.69,59,59,0,0,1-1.14-6.19,48.37,48.37,0,0,0-1.74-8.27,40.94,40.94,0,0,1-1.4-8.25,10,10,0,0,1,.89-5.28,7.15,7.15,0,0,0,.63-3.15,15,15,0,0,0-1.15-5.72,36.49,36.49,0,0,1-2.54-9.87,13,13,0,0,0-.73-3.39l-.32-.82a50,50,0,0,0-4.79-9.91,22.72,22.72,0,0,1-3-7.16c-.09-.32-.17-.65-.25-1-.2-.77-.41-1.57-.66-2.34a5.16,5.16,0,0,0-2.5-3.13,5.31,5.31,0,0,1-3.14-5.83,4,4,0,0,0,0-1.39l-.08-.33a16.36,16.36,0,0,0-.82-2.72,2.66,2.66,0,0,0-2.9-1.84,3.15,3.15,0,0,0-2.56,2.34,6.1,6.1,0,0,0-.21,1.89,7.17,7.17,0,0,0,.07,1c0,.26.06.54.07.8a9.28,9.28,0,0,1-2.14,6.46,32.21,32.21,0,0,1-3.72,3.57l-.25.22a3.49,3.49,0,0,1-2.19,1l.61-2.86c.55-2.57,1.09-5.08,1.63-7.58a9.87,9.87,0,0,1,1.65-3.76l.54-.73c.84-1.15,1.71-2.34,2.63-3.46a14.77,14.77,0,0,0,3.39-7.43c.07-.45.14-.9.22-1.35.14-.84.29-1.71.35-2.58a11.84,11.84,0,0,1,2.71-6.6c.34-.43.71-.86,1.07-1.27s.88-1,1.29-1.57l.34-.45a25.81,25.81,0,0,0,2.21-3.25c1.26-2.35,2.41-4.81,3.53-7.18l.08-.17c2.77-5.88,2.46-11.82-1-18.13a31.27,31.27,0,0,0-4.91-6.56l-1.11-1.18-.46-.49c.05-.19.09-.39.13-.57.1-.48.21-.94.33-1.39s.22-.88.34-1.33c.36-1.4.73-2.86,1.14-4.27a14.83,14.83,0,0,0-.5-9.69,35,35,0,0,1-1.67-10,5,5,0,0,1,.47-2.44c1.1-2.18,2.35-4.21,3.68-6.36l.62-1,.86.13,2,.31a18.33,18.33,0,0,0,5.56.18,12.69,12.69,0,0,0,10.13-6.56,30.3,30.3,0,0,0,3-9.4l0-.17a1.35,1.35,0,0,0,0-.6,1,1,0,0,0-1.09-1,3.9,3.9,0,0,0-1.35.28,34.47,34.47,0,0,1-5.21,1.53c-.78.18-1.58.37-2.37.58a60,60,0,0,0-5.74,2,9,9,0,0,0-4.53,4.06,17.16,17.16,0,0,0-2.11,5.16,2.25,2.25,0,0,1-1.2,1.71c-.36.18-.71.38-1.13.61l-.31.17v-.12a2.93,2.93,0,0,1,.07-.65c.2-.75.41-1.51.62-2.27.3-1.08.62-2.21.9-3.32a13.08,13.08,0,0,1,2-4.74,20.17,20.17,0,0,0,6.9-4.18,62.11,62.11,0,0,0,5.57-6c3.73-4.69,5.3-10.41,4.68-17a16.49,16.49,0,0,0-2.71-8c-1.06-1.53-2.2-3-3.29-4.51l-.13-.16c-.91-1.21-1.83-2.41-2.74-3.61l-1.72-2.25c-.11-.14-.2-.3-.3-.45-.38-.61-.85-1.37-1.86-1.08-.81.24-.89,1-.95,1.63a3.09,3.09,0,0,1-.09.57c-.06.29-.09.6-.12.89a4,4,0,0,1-.43,1.7l-.36-.52c-.36-.51-.7-1-1-1.48a55.32,55.32,0,0,0-6.3-8.47l-.07-.07a6.86,6.86,0,0,0-1.13-1,1,1,0,0,0-1.45.28,2.59,2.59,0,0,0-.37.77l-.18.53c-.66,1.95-1.35,4-2,6a31.06,31.06,0,0,0-1.59,8v.16c-.13,2.54-.27,5.16-.33,7.74a43.8,43.8,0,0,0,1.39,12.32c.36,1.37.74,2.73,1.12,4.09l1,3.79.33,1.23c.6,2.27,1.22,4.61,1.77,6.93a6.47,6.47,0,0,1-.9,5.37,7.7,7.7,0,0,0-1.18,3.56,29.91,29.91,0,0,1-.85,4.08c-.58,2.12-1.2,4.27-1.8,6.35-.34,1.17-.68,2.35-1,3.54a15.19,15.19,0,0,0,.18,9.2c.45,1.32.82,2.7,1.18,4l.2.76a18,18,0,0,1,.43,7.48,5.45,5.45,0,0,1-.22.8,2.25,2.25,0,0,0-.08.24l-.16-.14a4,4,0,0,1-.46-.46A18.16,18.16,0,0,1,227.5,188a18.35,18.35,0,0,1,.14-4.93,8.81,8.81,0,0,0-4.41-9.11,15.29,15.29,0,0,0-6.27-2.12,6.92,6.92,0,0,1-4-1.63,4.29,4.29,0,0,0-5.58-.43,21.72,21.72,0,0,0-2.17,1.51c-.29.23-.57.48-.84.72a8.47,8.47,0,0,1-1.16,1,4.31,4.31,0,0,1-2,.88,15.58,15.58,0,0,0-5.37.89c-.66-1.12-1.33-2.22-2-3.32-1.83-3-3.56-5.92-5.27-8.88a17.44,17.44,0,0,1-1.66-3.79c-.4-1.4-.7-2.85-1-4.25-.15-.72-.31-1.44-.47-2.15-.41-1.79-.83-3.61-1.29-5.38-.2-.8-.44-1.6-.66-2.38-.38-1.29-.77-2.63-1-4a76.15,76.15,0,0,1-.93-22.22,42.52,42.52,0,0,1,.87-5.44c1.43-6.37,4.66-10.86,9.87-13.73a32.16,32.16,0,0,1,3.3-1.58,15.79,15.79,0,0,0,4.5-2.83q1-.86,2-1.74a17.09,17.09,0,0,1,7.28-3.85,12.83,12.83,0,0,0,8.52-7.15,25.07,25.07,0,0,0,1.36-3.75l.15-.49a5.23,5.23,0,0,0,.16-1.89,1.44,1.44,0,0,0-.55-1,1.55,1.55,0,0,0-1.19-.33,6.62,6.62,0,0,0-1.16.31l-.14,0A32.52,32.52,0,0,0,209,78.8a8.33,8.33,0,0,0-3.8,5.68c-.07.39-.17.78-.28,1.19l-.13.49-1.75.41c0-.17,0-.33,0-.49a4.91,4.91,0,0,1,.24-1.17l.39-1c.67-1.68,1.37-3.43,2.21-5.06a53.22,53.22,0,0,1,5.2-7.72l.07-.09a26.83,26.83,0,0,1,7.49-6.79,7.23,7.23,0,0,0,3-3.4c.17-.38.34-.75.52-1.13l.2-.45.44-.11a8,8,0,0,1,1-.23,19,19,0,0,0,5.77-2c3.61-1.85,5.09-4.59,4.66-8.6-.22-2.14-.58-4.28-.93-6.27a4.38,4.38,0,0,0-1.37-3,.17.17,0,0,0-.12,0l-.22,0a1.56,1.56,0,0,0-.61,0,39.22,39.22,0,0,0-9.81,3.9,8.6,8.6,0,0,0-4.53,7.53,37.82,37.82,0,0,0,.27,4.77l0,.49c0,.36.11.72.17,1.06a5.56,5.56,0,0,1,.17,1.53l-2.25,1.56c-1.69,1.17-3.29,2.28-4.91,3.44a21.58,21.58,0,0,0-8.68,12.36c-.24.92-.51,1.83-.72,2.53l-1,3.21c-.58,1.92-1.19,3.91-1.77,5.86a3.24,3.24,0,0,1-2.37,2.6,16.28,16.28,0,0,0-7.48,4.43A19.34,19.34,0,0,1,186,96l-.77.53-.12.09a.87.87,0,0,1-.93.23l-.08-.43c-.08-.42-.17-.87-.25-1.33C183,90.32,181.15,87,178,84.67a7.87,7.87,0,0,1-2.41-3.26,74.38,74.38,0,0,0-9.69-16.61,50.62,50.62,0,0,1-3-4.4c-.41-.64-.81-1.27-1.23-1.89a5.48,5.48,0,0,1-.45-.91c-.47-1.12-.93-2.24-1.39-3.37l-.47-1.16.38-.52c.3-.41.57-.79.83-1.19a8.53,8.53,0,0,0-.32-10.31,27.58,27.58,0,0,0-5.75-5.47A1.51,1.51,0,0,0,153,35.2a1.41,1.41,0,0,0-.77,1.2c-.41,2.88-.74,5.71-1,8.11a7.41,7.41,0,0,0,2.81,6.7l1.34,1.14.58.49a7.48,7.48,0,0,0,.1,1.26,4,4,0,0,1-.07,2.14l-.16-.12-.7-.48a49.45,49.45,0,0,0-8.47-4.89l-1.12-.49c-1.21-.54-2.45-1.1-3.66-1.7A13.39,13.39,0,0,0,137.35,47a10.13,10.13,0,0,1-5.14-2.25,39.13,39.13,0,0,0-3.91-2.72,10.94,10.94,0,0,1-4.76-5.61c-.3-.75-.59-1.52-.87-2.27-.53-1.45-1.09-2.94-1.77-4.35a14.72,14.72,0,0,1-1.27-7.58,4.33,4.33,0,0,1,.61-2.13c2.23-3.72,2-7.62-.58-11.62a13.4,13.4,0,0,0-4-3.95c-2.39-1.54-4.86-3-7-4.22a1.76,1.76,0,0,0-1.5-.26,1.63,1.63,0,0,0-.91,1.1,43.69,43.69,0,0,0-1.73,6.09,11.63,11.63,0,0,0,3.27,10.83c1,1,1.88,2,2.77,3,.56.63,1.12,1.25,1.69,1.86a8.52,8.52,0,0,1,2.27,4.79,18.68,18.68,0,0,0,2,6.33c.48.9.94,1.83,1.38,2.73.28.58.57,1.16.86,1.74a24.76,24.76,0,0,0,6.52,8.62,8,8,0,0,1,.75.69l.25.25a11.71,11.71,0,0,1-3.39,3,20.5,20.5,0,0,0-5.52,5.34c-.78,1.08-1.48,2.18-2.21,3.34-.29.46-.58.92-.88,1.38l-.06,0a4.54,4.54,0,0,1-.48-.39,31.3,31.3,0,0,0-6.44-5.08c-3-1.94-5.34-3.48-7.42-5a52.09,52.09,0,0,1-4.63-3.86,8.93,8.93,0,0,1-2.93-5,37.35,37.35,0,0,0-.88-3.85,20,20,0,0,0-1.28-3.49c-.59-1.12-1.23-1.72-2-1.82s-1.57.32-2.5,1.29a8.88,8.88,0,0,0-1.41,2,13.69,13.69,0,0,0-.65,1.47c-.13.32-.25.65-.4,1a1.64,1.64,0,0,0-.1.38c-.07.3-.11.43-.3.47L82,38.46a27.35,27.35,0,0,0-2.21-1.63,1.53,1.53,0,0,0-1.48-.22,1.47,1.47,0,0,0-.74,1.27c-.19,1.8-.29,3.63-.39,5.41l0,.63c-.17,3.09-.32,6.13-.42,8.42l-.06,1.15a35.92,35.92,0,0,0-.08,3.6A30.45,30.45,0,0,1,76,64.37c-.54,2.84-1,5.75-1.53,8.56-.25,1.47-.5,2.94-.76,4.41a4.09,4.09,0,0,1-.2.63.88.88,0,0,1,0,.15l-.7-.48L71,76.42a24.11,24.11,0,0,0-10-4.14c-1.48-.24-3-.61-4.43-1l-1-.23c-1.55-.37-3.1-.76-4.65-1.15l-2.76-.7-.34-.09a4.51,4.51,0,0,0-1.26-.22,1.72,1.72,0,0,0-1.32.51,1.67,1.67,0,0,0,.14,1.4,3,3,0,0,0,.62.75,3.7,3.7,0,0,1,.28.28l1.11,1.2q1.23,1.32,2.46,2.67a46,46,0,0,0,8.64,7.36A54,54,0,0,0,69,88.84,11.48,11.48,0,0,1,74.87,94c1.49,2.6,3.16,5.23,4.95,7.8a24.67,24.67,0,0,0,8,7.3,11.77,11.77,0,0,0,11.29.71c1.42-.64,2.88-1.28,4.35-1.89a5.08,5.08,0,0,1,3.61-.45l1.23,1.25c.91.94,1.86,1.92,2.82,2.85a19,19,0,0,0,8.05,5,11.39,11.39,0,0,1,4.66,2.71c1.29,1.19,2.6,2.37,3.9,3.55,2.42,2.21,4.92,4.49,7.33,6.77a13,13,0,0,1,4.49,9.07c0,.53.08,1.07.13,1.59s.1,1,.13,1.56a8.37,8.37,0,0,1,0,1.2l0,.46-15.87-1.08a16.45,16.45,0,0,0-9.83-6.09,13,13,0,0,0-10.71,2,17.53,17.53,0,0,0-5.16,6,1,1,0,0,0,0,.62,1.11,1.11,0,0,1,0,.17.2.2,0,0,0,.06.15,1.14,1.14,0,0,1,.15.17,1.08,1.08,0,0,0,.34.3l.87.4c1.29.59,2.62,1.2,4,1.75a19.35,19.35,0,0,1,4.73,2.71,18.92,18.92,0,0,0,2.64,1.79,9.05,9.05,0,0,0,11.46-2.13c.35-.4.71-.79,1.07-1.17l.42-.45.34,0a4.52,4.52,0,0,1,.69.08,62.75,62.75,0,0,0,16,1.31,11.84,11.84,0,0,1,4.81.79l2.39.88c1.08.39,2.2.8,3.3,1.22l2,.75a157.3,157.3,0,0,1,18.57,8.08,21.21,21.21,0,0,1,5.71,4.06l4.29,4.65c2.35,2.53,4.77,5.15,7.13,7.75,1,1.12,2,2.34,3,3.51l.62.76a3.43,3.43,0,0,1,.72,1.2,33.6,33.6,0,0,0,2.06,6c.21.49.41,1,.61,1.47a9.41,9.41,0,0,1,.39,6.8l0,.1c-.12.34-.19.57-.57.61-1.36-3-3.74-5.22-6-7.37-.85-.79-1.68-1.59-2.47-2.36a18.72,18.72,0,0,1-4.38-6.4c-2.33-5.76-6.59-9.88-13-12.6a21,21,0,0,0-15.34-.61,20.32,20.32,0,0,1-7.42,1.11,15.84,15.84,0,0,0-6,.91,9.41,9.41,0,0,1-7-.22c-1.06-.45-2.21-.95-3.62-1.58a10.62,10.62,0,0,0-13.16,3.52,34.57,34.57,0,0,0-2,3.1,30.94,30.94,0,0,0-3.76,10.16c-.73,4.2-1.34,8-1.86,11.71-.58,4.05-1.75,6.9-3.79,9.26a9.51,9.51,0,0,0-2.13,5.7c-.39,4.51.73,8.86,3.52,13.68a45.23,45.23,0,0,0,6.79,8.43,5,5,0,0,1,.57.78l.1.15-.36-.16c-.53-.24-1-.43-1.38-.58l-1.89-.7c-1.65-.62-3.36-1.26-5.09-1.73a10.22,10.22,0,0,0-9.39,1.87,26.51,26.51,0,0,0-3.63,3.48c-1,1.14-1.84,2.38-2.69,3.57L89,243.54c-.27.37-.56.73-.86,1.1-.1.14-.21.27-.32.41l-.49-.24c-.4-.19-.76-.36-1.1-.56a162.66,162.66,0,0,0-19.07-10.17,25,25,0,0,0-5.81-1.82,24.76,24.76,0,0,1-4-1.06,8.08,8.08,0,0,0-4.5-.28,31,31,0,0,1-3.87.49,2.67,2.67,0,0,1-.91-.18l-.33-.1A23.21,23.21,0,0,1,49,225.32a11.47,11.47,0,0,0,0-7.88,27.39,27.39,0,0,1-.8-3A31.79,31.79,0,0,0,43.33,203,47.31,47.31,0,0,0,22,185.75c-3.22-1.31-6.41-2.86-9.5-4.36l-1.24-.6a27.45,27.45,0,0,1-2.47-1.44c-.52-.33-1-.67-1.6-1a1.47,1.47,0,0,0-1.42-.13,1.58,1.58,0,0,0-.73,1.31c0,.32,0,.64,0,1,0,.12,0,.25,0,.37a42.62,42.62,0,0,0,4.46,19.17c.14.29.26.58.39.93,0,.1.08.21.13.31a13.36,13.36,0,0,1-3.38.11c-.49,0-1-.05-1.5-.05a12.5,12.5,0,0,1-1.71-.16,7.07,7.07,0,0,0-3.2.07.18.18,0,0,0-.13.12,1.69,1.69,0,0,0,.56,2l1.16,1.13c1.23,1.19,2.51,2.43,3.84,3.56a32.85,32.85,0,0,1,5.2,5.5,119.51,119.51,0,0,0,8.88,10.34l.05.06a44.71,44.71,0,0,0,4,3.81,26.79,26.79,0,0,0,18.68,6.29l1.19,0h.2c.51.46,1,.91,1.46,1.35a33.59,33.59,0,0,0,3,2.65c2.43,1.81,5,3.53,7.48,5.19l.76.51a14,14,0,0,0,2.81,1.53,38.47,38.47,0,0,0,11.25,2.92,13.69,13.69,0,0,1,8.42,3.56,4.43,4.43,0,0,1,.53.62l.2.26-.68.23-1.72.61-1.76.62c-1.54.54-3.14,1.11-4.68,1.76a8.59,8.59,0,0,0-2.9,1.91,20.13,20.13,0,0,0-5.78,12.84c-.28,5.15,1.14,10.2,4.59,16.38a45.29,45.29,0,0,0,7.21,8.94l.64.66c.29.3.57.6.86.89.74.76,1.5,1.55,2.22,2.35a6.45,6.45,0,0,1,1.77,5.4,17.12,17.12,0,0,0-.13,1.86,6.19,6.19,0,0,0,1.85,4.68A16.22,16.22,0,0,0,85.61,315,39.59,39.59,0,0,0,90.2,317a11.57,11.57,0,0,1,6.24,5.18l.16.29c.61,1,1.23,2.07,1.79,3.13a10.08,10.08,0,0,0,4.1,4.16,15.11,15.11,0,0,0,6.58,2,28.38,28.38,0,0,0,7.13-.44,34.77,34.77,0,0,0,10.32-4.05l.3-.18a1.58,1.58,0,0,1,1.06-.37,8.93,8.93,0,0,1-4,7.24,26.89,26.89,0,0,1-3.66,2c-5,2.27-8.35,5.5-10.34,9.9-.18.4-.38.81-.56,1.21-.29.62-.59,1.27-.87,1.9a82.39,82.39,0,0,1-4.68,9.41,24.13,24.13,0,0,0-1.63,3.35,2.73,2.73,0,0,0-.08,2.18,2.51,2.51,0,0,0,1.58,1.25,24.33,24.33,0,0,1,4.53,2.28l.8.47c.89.52,1.82,1.08,2.94,1.77a20.69,20.69,0,0,0,15.6,2.62,39.72,39.72,0,0,0,7-2.31,25.33,25.33,0,0,1,10.7-2c.9,0,1.8,0,2.65,0A18.43,18.43,0,0,0,159,364.39c1.08-.81,2.09-1.73,3.07-2.62l1.32-1.17c.57-.5,1.14-1,1.7-1.51,1.18-1,2.41-2.14,3.65-3.15a11.84,11.84,0,0,1,9.38-2.77,16.76,16.76,0,0,0,11.43-2.82c1-.62,1.89-1.3,2.8-2l1.15-.82,1.19.34a27.13,27.13,0,0,0,2.86.71c.89.15,1.81.22,2.7.29.58,0,1.18.08,1.76.15s1.24.21,1.85.34l.45.1a3,3,0,0,1,1.61,1c1.48,1.66,1.87,1.68,3.73.26.12-.09.26-.17.42-.27l.19-.11a73.75,73.75,0,0,0,12.87,2.08l.83.09a53,53,0,0,1,8.75,1.66c2,.54,4,1,5.91,1.52l2.77.7.31.07a5.46,5.46,0,0,1,.92.28,36.35,36.35,0,0,1,8.48,5.65l1,.81a.74.74,0,0,1,.29.67.92.92,0,0,1-.55.7c-.34.16-.7.3-1.05.44s-.76.31-1.13.49a1.09,1.09,0,0,0-.61.76,1,1,0,0,0,.22.9,4.49,4.49,0,0,0,1.19,1.12,13.7,13.7,0,0,0,2.66,1.23,24.66,24.66,0,0,1,5.85,2.86c1.17.74,2.42,1.38,3.64,2l.54.27a5.68,5.68,0,0,0,2.91.61c4.38-.21,8.84.74,14.48,3.07A10.91,10.91,0,0,1,286,383c2.65,4.43,5.55,9.79,6.92,16.06a26,26,0,0,0,4.77,10.3,29.43,29.43,0,0,1,2.75,4.73c.38.79.5,1.27.38,1.63s-.55.71-1.48,1.15c-.33.16-.67.29-1,.42l-.45.18-.69.27c-.51.19-1,.39-1.52.63a2.26,2.26,0,0,0-1.22,3.11,3.05,3.05,0,0,0,2.51,2c1.14.23,2.28.49,3.42.74s2,.45,3,.66l.52.11a26.93,26.93,0,0,0,3.13.55,25.79,25.79,0,0,1,9.69,2.9c2.32,1.22,5,2.63,7.81,3.87a24.66,24.66,0,0,1,5.76,3.55l.51.42c.77.63,1.56,1.29,2.36,1.9a38.54,38.54,0,0,1,8.59,9.79c1.46,2.21,2.73,4.57,3.95,6.86.73,1.36,1.49,2.77,2.27,4.13a82.82,82.82,0,0,1,5.32,10.55,18.52,18.52,0,0,0,3.4,5.38,20,20,0,0,1,2.4,3.39c1.44,2.58,3.32,6,5.07,9.52.78,1.59,1.44,3.27,2.08,4.9.18.47.36.94.55,1.4a2.44,2.44,0,0,1,.09.76,1.62,1.62,0,0,0,0,.22l-4-.85-.09-.62c-.09-.55-.19-1.13-.27-1.71a36.73,36.73,0,0,0-6.65-16.83c-6.2-8.52-15-12.83-26.06-12.82l-1.23,0a16.11,16.11,0,0,1-5-.42,1.25,1.25,0,0,0-.47,0H323a.91.91,0,0,0-.69.37,1,1,0,0,0-.18.84,3.73,3.73,0,0,0,.25.78,19.9,19.9,0,0,0,4.78,7.28,2.11,2.11,0,0,1,.35.5l.06.13-1.1,1.08a.2.2,0,0,0-.05.24c.09.22.17.43.25.64a8.58,8.58,0,0,0,.58,1.35c.42.77.87,1.54,1.3,2.28.57,1,1.15,2,1.69,3a35.62,35.62,0,0,0,7.9,9.54c5.48,5,11.39,6.89,18.07,5.9a12.57,12.57,0,0,1,2.58-.1,2.81,2.81,0,0,1,2.88,2.22,16.33,16.33,0,0,0,2.95,5.65,26.74,26.74,0,0,0,1.81,2c.41.42.84.86,1.23,1.3,1.44,1.62,2.89,3.29,4.29,4.9l1.75,2c1,1.83,2.11,3.67,3.15,5.45,2.05,3.5,4.18,7.11,6,10.82,1,2.09,2.15,4.18,3.24,6.2l.69,1.26a56.06,56.06,0,0,1,4.28,9.57c.38,1.24.86,2.45,1.31,3.64l.32.83,1.36,3.54c2.65,6.9,5.39,14,7.54,21.25,1,3.46,2.05,7.13,3,10.9,2.26,8.77,4.23,16.54,6,23.75.75,3,1.52,6.26,2,9.51a116.93,116.93,0,0,0,3.76,17.25,87.41,87.41,0,0,1,2.76,11.76c.2,1.23.46,2.45.77,3.62,2.05,7.79,5.22,15.3,8.29,22.56l1.11,2.62a7.51,7.51,0,0,0,.38.75c.13.23.24.44.34.66.22.51.44,1,.67,1.5.59,1.32,1.21,2.68,1.69,4.06.53,1.54,1,3.15,1.42,4.7.22.79.45,1.57.68,2.36l.58,2c.54,1.84,1.09,3.74,1.72,5.58,1,2.87,2,5.75,3.05,8.55l.69,1.87a11.88,11.88,0,0,0,.58,1.3c.09.17.17.34.25.51A.21.21,0,0,0,441.47,712.23ZM244.88,342.47c-2.71-4.73-5-8.68-7.26-12.81-.51-.93-1-1.89-1.41-2.9-.2-.44-.4-.89-.61-1.33a28.83,28.83,0,0,0,3.08-6.66c.25-.72.52-1.45.8-2.17a45.53,45.53,0,0,1,2-4.19l.75-1.49a1,1,0,0,1,.29-.29l.11-.09c2,3.71,2.86,6.78,2.75,9.93a21.31,21.31,0,0,0,.52,6.07c.1.4.21.8.32,1.2.23.85.47,1.73.64,2.61l.14.69a23,23,0,0,1,.58,3.94,42.24,42.24,0,0,0,1.65,9.61c0,.2.11.39.16.59a10.38,10.38,0,0,1,.49,2.48.59.59,0,0,0-.14-.06,2.84,2.84,0,0,1-.58-.29A14.31,14.31,0,0,1,244.88,342.47Zm-16-10.4a17.59,17.59,0,0,0,3,5.3c.91,1.22,1.86,2.52,2.72,3.87a16.75,16.75,0,0,1,2,4.59l-1.11-.26c-.87-.22-1.62-.4-2.37-.52l-.22,0a39.62,39.62,0,0,0-4.49-.56c-1.74-.07-3.51-.09-5.23-.1l-2.93,0a27,27,0,0,1-6.9-1c0-.12.05-.23.08-.34a3.71,3.71,0,0,1,.26-.92,13,13,0,0,1,5.72-5.81c1.07-.56,2.17-1.09,3.24-1.61l1.48-.72,4.4-2.16.09.07C228.69,331.9,228.82,332,228.84,332.07ZM168.4,80.36A18.49,18.49,0,0,1,173,86.29c1.1,2,2.16,4,3.18,5.93l.79,1.5c.33.63.61,1.28.87,1.9a10.83,10.83,0,0,1,.62,7.32c-.38,1.42-.75,2.86-1.1,4.26-.53,2.12-1.08,4.31-1.72,6.44a27.39,27.39,0,0,0,0,16.71,37.24,37.24,0,0,1,1.79,11.33,35,35,0,0,0,2.3,12.45l.18.48a11.2,11.2,0,0,1,.84,3l-1.84-.76c-1.48-.61-2.87-1.19-4.24-1.78a29.21,29.21,0,0,0-7.36-2.17,13.11,13.11,0,0,1-5.75-2.24,20,20,0,0,0-6-2.71,32,32,0,0,1-3.47-1.29l-1.42-.58a3.78,3.78,0,0,1-2.26-2.52c-.47-1.33-.95-2.65-1.43-4s-1.08-3-1.6-4.45a37.12,37.12,0,0,0-2.93-6.8,22.45,22.45,0,0,0-8.19-8.5,43,43,0,0,1-4.79-3.37l-1.17-.91a9.14,9.14,0,0,1-2.86-3.9c-.23-.57-.47-1.14-.71-1.71a35,35,0,0,0-4.82-8.8,9.68,9.68,0,0,1-.87-1.34c-.12-.21-.24-.42-.37-.63l.14-.21a2.23,2.23,0,0,1,.5-.58,9.16,9.16,0,0,0,3.34-4.77A40.88,40.88,0,0,0,125.08,78c0-.87-.12-1.76-.2-2.62s-.14-1.57-.18-2.36c-.12-2.44-.19-4.49-.18-6.57a17.42,17.42,0,0,1,1.84-8,14.75,14.75,0,0,0,1.65-8,6.59,6.59,0,0,1,0-.77l0-.08,0-.06c.21-.19.39-.11.73.12a.57.57,0,0,0,.13.08,12.53,12.53,0,0,0,5.77,1.95,7.83,7.83,0,0,1,2.71.72c3,1.43,6.06,2.94,9,4.4L149,58.05a6.23,6.23,0,0,1,.87.52l2.4,1.81c2.24,1.69,4.55,3.45,6.78,5.23a14.64,14.64,0,0,1,4.14,5.89c.65,1.48,1.34,3,2,4.39l.4.88A9.75,9.75,0,0,0,168.4,80.36ZM354,340.28l.47,0a23.83,23.83,0,0,1-.73,6.94,23.1,23.1,0,0,0-.52,10.51,9.89,9.89,0,0,1-.77,6,42.14,42.14,0,0,0-3.25,10,23,23,0,0,1-3.44,7.56c-1.23,2-2.55,4-3.82,6-.39.59-.78,1.18-1.16,1.77a5.39,5.39,0,0,1-.54.66l-.12.14h0a1,1,0,0,1-.16-.19,5.36,5.36,0,0,1-.1-.6c0-.14,0-.28-.07-.42a82.47,82.47,0,0,1-1.37-15.38,22.67,22.67,0,0,0-2.83-11.49,10,10,0,0,1-1.22-3.92,20.35,20.35,0,0,0-2-6.58c-.07-.17-.15-.34-.22-.5-.21-.47-.43-1-.69-1.42a34.65,34.65,0,0,1-3.21-9.12c-.1-.42-.21-.84-.32-1.26a9,9,0,0,1,.37-6.22,7.39,7.39,0,0,1,2.84,1.2l.46.26c.78.45,1.55.92,2.32,1.38,1,.61,2.07,1.23,3.13,1.83a29.89,29.89,0,0,0,10.83,3.33,12.77,12.77,0,0,0,4.78-.3h0A9.51,9.51,0,0,1,354,340.28Z" fill="#e69c6f"/></svg>