<svg xmlns="http://www.w3.org/2000/svg" width="722.72" height="465.57" viewBox="0 0 722.72 465.57"><path d="M.64,425.7,0,427.57a.38.38,0,0,0,0,.15l2.78,7.4a.1.1,0,0,0,0,.07.18.18,0,0,0,.09.06.22.22,0,0,0,.18,0c.36-.23.65-.11,1.1.1l.18.09,1.43.65c1,.47,2.09,1,3.16,1.37a9.76,9.76,0,0,0,3.12.69c4,.14,7.08-.7,9.58-2.66l.47-.34.16-.11A47.08,47.08,0,0,1,36,428.48c1.92-.58,3.84-1.26,5.69-1.93,1-.37,2-.73,3-1.08l1.44-.5c2-.68,4-1.38,6-2,1.77-.54,3.57-1.06,5.32-1.55s3.37-1,5-1.47c1.88-.57,3.76-1.24,5.57-1.89l.43-.16a59.69,59.69,0,0,1,9.14-2.32c2.17-.42,4.35-.95,6.45-1.46l3.05-.73,1.57-.38c1.33-.32,2.7-.65,4.07-.88,2.91-.5,5.88-1,8.75-1.46,4.2-.68,8.55-1.39,12.81-2.16a99.65,99.65,0,0,0,19.47-5.71,56.93,56.93,0,0,1,7.21-2.41l1.57-.4a47.13,47.13,0,0,0,11.2-3.84,22.52,22.52,0,0,1,6.39-2.21,87.9,87.9,0,0,0,12.4-3.67,19,19,0,0,1,5.57-1.24,11.46,11.46,0,0,0,5.41-1.41A12.86,12.86,0,0,1,191,385.8a5,5,0,0,0,.87-.07,2.24,2.24,0,0,1,1.55.13l.12.55c.11.47.22.93.31,1.4a17.12,17.12,0,0,0,8.77,11.82c4.56,2.58,9.76,3.16,15.48,1.73,2.34-.59,4.68-1.35,6.93-2.1L226,399c1.28-.42,2.1-.8,2.22-1.41s-.51-1.28-1.54-2.16a101,101,0,0,1-9.21-8.62,23.86,23.86,0,0,0-3-2.66,16.36,16.36,0,0,0-15.56-3,3.79,3.79,0,0,0-.5.18,3,3,0,0,1-1.28.29l.06-.11a1.78,1.78,0,0,1,.28-.5,21.6,21.6,0,0,1,9.44-5.82,157.33,157.33,0,0,0,20.38-8l.61-.3c2.05-1,4.17-2,6.33-2.85,1.79-.66,3.67-1.17,5.49-1.67l1.81-.5a97.34,97.34,0,0,0,26.8-11.59c4-2.56,8.65-5.55,13.4-8.35a57.69,57.69,0,0,1,12.91-5.79,23.94,23.94,0,0,1,17.07,1.09,56.37,56.37,0,0,1,8.3,4.49,23.49,23.49,0,0,0,7.67,3.57,14,14,0,0,1,5.53,2.76c1.4,1.13,2.8,2.29,4.15,3.41l2.15,1.78,2.28,1.88,2.61,2.13a6.88,6.88,0,0,0,5.6,1.47,12.83,12.83,0,0,0,1.57-.31,8.1,8.1,0,0,1,5,.36c1.45.56,2.94,1.07,4.38,1.55l1.85.63a6,6,0,0,0,4.52-.12c1-.41,1.88-.9,2.78-1.36l.3-.15a7.11,7.11,0,0,1,6.29-.44l0,.48c0,.38.06.72.09,1.06A31.55,31.55,0,0,0,379,370a32.52,32.52,0,0,0,9.36,13.29c1.65,1.41,2.94,2.59,4.07,3.72,1.53,1.51,3.49,3,6.43,2.8a4.56,4.56,0,0,1,4.5,2.7,9.92,9.92,0,0,0,1.7,2.4,8.93,8.93,0,0,0,2.63,1.81,2.42,2.42,0,0,0,2,0,2.82,2.82,0,0,0,1.43-1.72,3.68,3.68,0,0,0-.35-3.22,14.94,14.94,0,0,0-1.11-1.51,8.45,8.45,0,0,1-1.92-4.69,15,15,0,0,1,2.22-9.42.93.93,0,0,1,.39-.27h0l.92,2.56c.76,2.16,1.49,4.2,2.29,6.25a14.27,14.27,0,0,1,1,6.61c-.12,1.3-.27,2.62-.42,3.92a13.77,13.77,0,0,0,.92,7.59c.26.59.5,1.19.73,1.77.35.87.7,1.76,1.13,2.61a10.91,10.91,0,0,1,1.14,6c-.07.75-.17,1.51-.26,2.24s-.17,1.29-.24,1.94c0,.33-.07.65-.11,1a17.66,17.66,0,0,0-.16,3.25c.25,3.12.64,6.28,1,9.34l0,.35a17,17,0,0,0,5.57,10.36,24.41,24.41,0,0,0,8.31,5.12,50.08,50.08,0,0,0,7,1.93l2.15.48a48.36,48.36,0,0,1,6.29,1.81,15.89,15.89,0,0,1,7.85,6.55,14.91,14.91,0,0,1,.91,1.78c.13.26.25.53.37.79a8.86,8.86,0,0,0,8.54,5.45,14.72,14.72,0,0,0,6.21-1.37,8.29,8.29,0,0,1,5-.83,3.91,3.91,0,0,0,4.35-2.28,16.73,16.73,0,0,0,1.47-3.7,6.14,6.14,0,0,1,3.19-4.37,2.37,2.37,0,0,0,.33-.22l.13-.1a5.42,5.42,0,0,0,2.41-5.43,9.58,9.58,0,0,0-2.55-5.53,31.44,31.44,0,0,0-5.25-4.44,27.37,27.37,0,0,1-3.2-2.65,6.48,6.48,0,0,1-1.86-4.53,1.15,1.15,0,0,1,.37.12,21.39,21.39,0,0,0,7.24,2.54l1.7.34,1.92.39a20.86,20.86,0,0,1,8.59,3.57A22.75,22.75,0,0,0,511,440.92a22.08,22.08,0,0,0,15.25-8c.11-.14.23-.28.35-.41l.34-.39a13.35,13.35,0,0,1,3.69-3.22,23.17,23.17,0,0,0,6.49-5.41,7.91,7.91,0,0,1,5.06-2.81c.69-.1,1.38-.22,2.07-.33.85-.15,1.74-.3,2.6-.42a10.44,10.44,0,0,0,8.8-8.93,26.93,26.93,0,0,0,.21-4.76,30,30,0,0,0-2.13-10.34c-1.5-3.61-3.13-7.49-4.84-11.4a16.92,16.92,0,0,1-1.56-9.62,8.34,8.34,0,0,0-.81-5,20.71,20.71,0,0,0-6.89-8.3,33.31,33.31,0,0,0-9.75-4.7c-.87-.25-1.77-.48-2.63-.69l-2-.51c-.3-.08-.59-.2-1-.36l0,0,.16,0c.53-.07.9-.12,1.29-.2l2-.4c1.72-.33,3.49-.67,5.21-1.12a10.66,10.66,0,0,0,8.08-7.82l.07-.22a23.37,23.37,0,0,0,.74-3.13c.25-1.86.39-3.74.52-5.51.13-1.93.2-3.52.21-5a16.57,16.57,0,0,1,4.55-11.32,41.31,41.31,0,0,0,3.32-4.12,12.57,12.57,0,0,0,2-3.77,19.92,19.92,0,0,0-.88-12.54,19.6,19.6,0,0,0-5-7.15,35.93,35.93,0,0,0-15.76-8.89l-3.33-.86c-1.69-.43-3.39-.86-5.09-1.31a6.74,6.74,0,0,1-4.91-4.08,7.16,7.16,0,0,0-6.45-4.63l-.29,0a18.53,18.53,0,0,0-3.16-.12,29.82,29.82,0,0,0-4.72.61,11.79,11.79,0,0,1-8.54-1.05l-.9-.47c-.62-.32-1.27-.65-1.88-1-3.77-2.3-7.87-2.33-12.54-.09a24.71,24.71,0,0,0-9.77,8.4c-.8,1.18-1.56,2.43-2.28,3.63-.36.58-.71,1.17-1.07,1.74l-.12.21c-.15.31-.24.43-.46.4-1.68-3.84-1.57-6.46.42-10,.3-.53.65-1,1-1.53a20.33,20.33,0,0,0,3.6-15.65A82.72,82.72,0,0,1,468.86,245a15.69,15.69,0,0,0-.25-2.39c-.37-2.17-1.33-2.86-3.53-2.53-1.46.21-2.94.36-4.42.44-.77.05-1.55.05-2.32.06-1,0-2,0-2.94.1a30.51,30.51,0,0,0-5,.76,20.67,20.67,0,0,0-10.22,6.44,61.18,61.18,0,0,0-4,4.95,25.22,25.22,0,0,1-7.71,6.94c-.79.46-1.57.95-2.25,1.38a18.48,18.48,0,0,0-7.61,9.33c-.43,1.13-.75,2.31-1.06,3.45-.19.7-.38,1.41-.6,2.11l-.41,1.33c-.63,2-1.28,4.14-2,6.17a10.51,10.51,0,0,1-5.66,6.07c-4.64,2.18-7.92,6-9.75,11.43A12.24,12.24,0,0,0,402,314.13l.29.32c.73.77,1.48,1.58,2.2,2.39a9.07,9.07,0,0,1,2.28,4.54,13.17,13.17,0,0,0,2.23,5.4c.47.67.88,1.38,1.36,2.23a17,17,0,0,1,2.53,8.13c0,1.76,0,2.87-.69,3.54s-1.58.77-3.21.72a.51.51,0,0,1-.2-.11l-.12-.07a5.44,5.44,0,0,0-4.31-5.13,5.21,5.21,0,0,1-2.86-2.4c-.88-1.37-1.74-2.81-2.54-4.28a11,11,0,0,0-3.17-3.59c-.69-.51-1.35-1.09-2-1.65l-.62-.53A3.4,3.4,0,0,1,392,320.3a20.79,20.79,0,0,0,.11-4.76,11.22,11.22,0,0,0-4.82-8.32c-.9-.64-2-1.21-3.17-.51a2.64,2.64,0,0,0-1,2.79c.12,1.21.31,2.43.5,3.62.1.61.19,1.23.28,1.85,0,.32.06.64.09,1,0,.12,0,.24,0,.37l-1.17,0-5.32-.19a2.25,2.25,0,0,1-.48-.06,1.92,1.92,0,0,1-1.8-1.92c-.2-2.21-.34-4.38-.45-6a1.26,1.26,0,0,1,.1-.42.49.49,0,0,0,0-.11l1.31-.11,2.88-.24c6.08-.46,13.61-5.19,15.61-13,.35-1.4.66-2.88.92-4.4.37-2.26.73-4.62,1-7a2.9,2.9,0,0,0-.15-1c0-.18-.1-.39-.15-.61a.21.21,0,0,0-.1-.14.19.19,0,0,0-.18,0l-.71.24a7,7,0,0,0-1.2.49c-.87.49-1.74,1-2.58,1.51s-1.45.87-2.19,1.29a4.67,4.67,0,0,1-.86.34l-.29.09c0-.35,0-.69,0-1,0-.91.06-1.76,0-2.6a19.28,19.28,0,0,0-.48-3.67,1.57,1.57,0,0,0-1-1.25,1.64,1.64,0,0,0-1.54.53c-.61.56-1.21,1.14-1.78,1.71s-1.33,1.31-2,1.93a72.94,72.94,0,0,0-7.29,8,19.74,19.74,0,0,0-3.64,7.34,11.14,11.14,0,0,0-.19,5.58,30.32,30.32,0,0,1,.56,3.61,3.62,3.62,0,0,1-.39,2.17c-.53,1-1,2-1.5,3-.32.65-.64,1.31-1,2l-.39.79c-.65,1.28-1.32,2.61-2,3.87a9.54,9.54,0,0,1-6.54,4.63,17.63,17.63,0,0,1-4.64.42,19,19,0,0,0-9.32,1.81A18.5,18.5,0,0,1,335,325.38c-.87-.08-2-.2-3.16-.28l-3-.22c-3.31-.23-6.74-.48-10.11-.69a19.35,19.35,0,0,0-8.38,1.16,19.69,19.69,0,0,1-8.71,1.14c-2.11-.14-4.27-.19-6.36-.24l-3.12-.08a1.88,1.88,0,0,0-.33,0c-.32,0-.5.05-.67-.17a.5.5,0,0,0,0-.12,1.73,1.73,0,0,1,.1-.45c.26-.67.53-1.34.8-2,.52-1.27,1.05-2.58,1.51-3.89a15.38,15.38,0,0,1,4.39-6.65l.59-.53c.64-.57,1.3-1.16,2-1.73,1.31-1.13,2.63-2.24,3.94-3.36,2.13-1.81,4.33-3.68,6.48-5.53a28.91,28.91,0,0,1,10.11-5.84,43.48,43.48,0,0,1,6.49-1.41l1.73-.28,1.77-.3c1.55-.26,3.16-.53,4.72-.87,5.15-1.14,8.62-4.09,10.33-8.75.09-.23.17-.46.25-.69a16.28,16.28,0,0,1,1.13-2.69,54.64,54.64,0,0,0,4.26-10.24,15.62,15.62,0,0,1,5.49-7.71,50.37,50.37,0,0,0,4.68-4.27,15,15,0,0,1,7.82-4.35,58.85,58.85,0,0,1,6.22-1,48.38,48.38,0,0,0,8.32-1.48,40.44,40.44,0,0,1,8.29-1.15,10,10,0,0,1,5.26,1.05,7.15,7.15,0,0,0,3.12.72,15,15,0,0,0,5.76-1,36.46,36.46,0,0,1,9.93-2.24,13.19,13.19,0,0,0,3.42-.62l.82-.3a49.63,49.63,0,0,0,10.05-4.49,23,23,0,0,1,7.25-2.8l1-.22c.77-.18,1.57-.36,2.35-.59a5.17,5.17,0,0,0,3.21-2.4,5.3,5.3,0,0,1,5.92-3,3.82,3.82,0,0,0,1.39,0l.34-.07a16.43,16.43,0,0,0,2.73-.73,2.65,2.65,0,0,0,1.93-2.84,3.13,3.13,0,0,0-2.26-2.63,6.39,6.39,0,0,0-1.88-.28,8.94,8.94,0,0,0-1,.05c-.27,0-.54,0-.8,0a9.3,9.3,0,0,1-6.39-2.34,31.32,31.32,0,0,1-3.46-3.82l-.21-.26a3.57,3.57,0,0,1-.92-2.22l2.85.7,7.53,1.86a9.84,9.84,0,0,1,3.7,1.76l.72.57c1.12.87,2.28,1.78,3.37,2.73a14.78,14.78,0,0,0,7.33,3.62l1.33.25a24.35,24.35,0,0,0,2.58.43,11.78,11.78,0,0,1,6.51,2.92c.42.35.84.73,1.24,1.1s1,.91,1.52,1.34l.45.35a26.08,26.08,0,0,0,3.18,2.31c2.31,1.33,4.72,2.56,7.06,3.75l.17.08c5.8,3,11.74,2.82,18.15-.4a31.36,31.36,0,0,0,6.71-4.71l1.22-1.07.5-.45.57.15c.47.12.92.23,1.37.37l1.32.38c1.39.4,2.83.82,4.23,1.28a15,15,0,0,0,9.71-.21,35.06,35.06,0,0,1,10.08-1.37,5,5,0,0,1,2.42.55c2.15,1.16,4.14,2.48,6.25,3.87l1,.66c-.06.29-.11.57-.16.84-.12.68-.24,1.32-.37,2a18.82,18.82,0,0,0-.35,5.56,12.71,12.71,0,0,0,6.26,10.33,30.53,30.53,0,0,0,9.3,3.26l.17,0a1.73,1.73,0,0,0,.6,0,1,1,0,0,0,1-1.07,4.18,4.18,0,0,0-.23-1.35A34,34,0,0,1,568,257c-.16-.78-.32-1.59-.51-2.38a58.79,58.79,0,0,0-1.78-5.8,9,9,0,0,0-3.92-4.65,17,17,0,0,0-5.1-2.27,2.24,2.24,0,0,1-1.66-1.25c-.17-.37-.36-.73-.58-1.15,0-.1-.1-.21-.16-.32h.12a3.36,3.36,0,0,1,.64.08l2.25.7c1.08.33,2.19.68,3.29,1a13.12,13.12,0,0,1,4.69,2.19,19.9,19.9,0,0,0,4,7,61,61,0,0,0,5.82,5.74c4.58,3.87,10.24,5.62,16.83,5.2a16.42,16.42,0,0,0,8.08-2.46c1.57-1,3.12-2.11,4.61-3.16l.17-.12q1.86-1.3,3.69-2.63l2.31-1.65.45-.29c.62-.35,1.39-.8,1.13-1.82-.21-.82-1-.92-1.6-1l-.56-.1a5.52,5.52,0,0,0-.89-.15,4,4,0,0,1-1.68-.49l.53-.34c.52-.35,1-.67,1.51-.95a55.13,55.13,0,0,0,8.65-6.05l.08-.06a7.36,7.36,0,0,0,1.06-1.1,1,1,0,0,0-.25-1.45,2.48,2.48,0,0,0-.75-.4l-.52-.2C616,236,614,235.25,612,234.53a30.93,30.93,0,0,0-8-1.83h-.16c-2.53-.2-5.15-.43-7.73-.57a44.15,44.15,0,0,0-12.35,1c-1.38.32-2.75.66-4.13,1l-3.82.92-1.24.29c-2.28.53-4.64,1.09-7,1.55a6.43,6.43,0,0,1-5.35-1.06,7.63,7.63,0,0,0-3.52-1.28,30.65,30.65,0,0,1-4.05-1c-2.1-.64-4.23-1.32-6.29-2l-3.51-1.12a15.22,15.22,0,0,0-9.2-.1c-1.33.41-2.72.74-4.07,1.06l-.76.18a17.9,17.9,0,0,1-7.5.19,4.85,4.85,0,0,1-.79-.24l-.23-.09.15-.15a2.61,2.61,0,0,1,.47-.44,18,18,0,0,1,8.21-3,18.16,18.16,0,0,1,4.92.28,8.82,8.82,0,0,0,9.25-4.13,15.19,15.19,0,0,0,2.31-6.2,6.87,6.87,0,0,1,1.75-3.9,4.3,4.3,0,0,0,.6-5.57,21.79,21.79,0,0,0-1.45-2.22c-.21-.29-.46-.58-.69-.85a10.87,10.87,0,0,1-.92-1.19,4.43,4.43,0,0,1-.81-2.05,15.55,15.55,0,0,0-.73-5.38l3.38-1.89c3.1-1.73,6-3.37,9-5a16.4,16.4,0,0,1,3.84-1.54c1.41-.36,2.86-.62,4.27-.87l2.17-.41c1.81-.35,3.63-.72,5.42-1.12.8-.18,1.61-.39,2.4-.59,1.3-.34,2.65-.69,4-.92a76,76,0,0,1,22.25-.25,44,44,0,0,1,5.4,1c6.33,1.63,10.72,5,13.43,10.29a31.26,31.26,0,0,1,1.48,3.35,15.78,15.78,0,0,0,2.68,4.58l1.68,2a17,17,0,0,1,3.63,7.39,12.8,12.8,0,0,0,6.89,8.73,24,24,0,0,0,3.7,1.49l.5.16a5.45,5.45,0,0,0,1.88.22,1.44,1.44,0,0,0,1-.52,1.56,1.56,0,0,0,.37-1.18,6.65,6.65,0,0,0-.28-1.17l0-.14a32.55,32.55,0,0,0-3.63-7.66,8.41,8.41,0,0,0-5.56-4,11.75,11.75,0,0,1-1.19-.32l-.48-.14-.35-1.76.48.07a4.62,4.62,0,0,1,1.16.27l1,.42c1.67.72,3.39,1.47,5,2.36a53.7,53.7,0,0,1,7.56,5.44l.09.07a26.84,26.84,0,0,1,6.56,7.69,7.21,7.21,0,0,0,3.3,3.1c.38.17.74.36,1.12.55l.44.21c0,.16.07.3.1.44a10.53,10.53,0,0,1,.2,1A18.94,18.94,0,0,0,662,234c1.74,3.66,4.43,5.22,8.46,4.92,2.14-.17,4.29-.46,6.29-.74a4.39,4.39,0,0,0,3-1.29.17.17,0,0,0,.05-.12l0-.21a1.55,1.55,0,0,0,0-.61,39.62,39.62,0,0,0-3.6-9.93,8.61,8.61,0,0,0-7.39-4.76,38.06,38.06,0,0,0-4.78.13l-.49,0c-.36,0-.72.09-1.06.14a5.44,5.44,0,0,1-1.53.12c-.51-.77-1-1.54-1.49-2.29-1.13-1.73-2.19-3.37-3.29-5a21.62,21.62,0,0,0-12.09-9.06c-.92-.27-1.82-.57-2.5-.8l-3.2-1.08c-1.89-.64-3.86-1.32-5.79-1.95a3.25,3.25,0,0,1-2.53-2.45,16.32,16.32,0,0,0-4.2-7.62,18.08,18.08,0,0,1-1.59-2.2q-.25-.4-.51-.78l-.09-.12a.87.87,0,0,1-.19-.94l.42-.08,1.34-.21c4.82-.7,8.2-2.46,10.62-5.52a7.75,7.75,0,0,1,3.33-2.31,74.32,74.32,0,0,0,16.9-9.18,47.07,47.07,0,0,1,4.49-2.9L662.6,166a4.68,4.68,0,0,1,.91-.43l3.42-1.28,1.17-.44.51.4c.4.31.77.6,1.16.86a8.54,8.54,0,0,0,10.32,0,27.3,27.3,0,0,0,5.64-5.58,1.5,1.5,0,0,0,.43-1.47,1.4,1.4,0,0,0-1.18-.8c-2.86-.5-5.68-.92-8.07-1.25a7.39,7.39,0,0,0-6.78,2.6c-.4.43-.8.87-1.19,1.31l-.51.56a6.47,6.47,0,0,0-1.25.07,4.13,4.13,0,0,1-2.14-.14l.12-.16.5-.69a48.55,48.55,0,0,0,5.14-8.31c.18-.36.36-.73.53-1.1.58-1.19,1.17-2.42,1.81-3.61A13.41,13.41,0,0,0,674.8,142a10.27,10.27,0,0,1,2.41-5.06,39.78,39.78,0,0,0,2.83-3.83,10.92,10.92,0,0,1,5.75-4.58c.76-.28,1.55-.54,2.3-.8,1.46-.49,3-1,4.4-1.64a14.82,14.82,0,0,1,7.62-1,4.39,4.39,0,0,1,2.11.68c3.65,2.33,7.56,2.26,11.63-.23a13.54,13.54,0,0,0,4.07-3.82c1.61-2.35,3.13-4.77,4.43-6.87a1.76,1.76,0,0,0,.31-1.5,1.65,1.65,0,0,0-1.07-.94,44.34,44.34,0,0,0-6-1.92,11.64,11.64,0,0,0-10.92,3c-1,.92-2,1.81-3.06,2.67-.64.54-1.28,1.08-1.91,1.64a8.36,8.36,0,0,1-4.85,2.11,19,19,0,0,0-6.39,1.8c-.91.45-1.86.87-2.77,1.28l-1.77.81a24.75,24.75,0,0,0-8.81,6.26c-.21.25-.46.48-.71.73l-.26.24a11.76,11.76,0,0,1-2.93-3.49,20.55,20.55,0,0,0-5.17-5.67c-1-.81-2.13-1.54-3.27-2.32-.45-.3-.9-.6-1.35-.92l0,0a3.73,3.73,0,0,1,.41-.47,31.43,31.43,0,0,0,5.27-6.28c2-3,3.64-5.23,5.21-7.27a53.52,53.52,0,0,1,4-4.5,8.9,8.9,0,0,1,5.12-2.78c1.5-.23,2.74-.47,3.88-.76a19.42,19.42,0,0,0,3.52-1.18c1.14-.55,1.76-1.17,1.88-1.9s-.27-1.57-1.21-2.53a8.85,8.85,0,0,0-1.91-1.47,12.83,12.83,0,0,0-1.45-.69l-.94-.43a1.86,1.86,0,0,0-.38-.12c-.3-.07-.43-.12-.46-.31l.7-.85a23.61,23.61,0,0,0,1.7-2.15,1.53,1.53,0,0,0,.27-1.48,1.51,1.51,0,0,0-1.25-.78c-1.79-.24-3.62-.4-5.4-.55l-.63-.06c-3.08-.26-6.11-.49-8.4-.67l-1.15-.09a35.5,35.5,0,0,0-3.59-.19,31,31,0,0,1-7.25-.81c-2.84-.63-5.72-1.22-8.52-1.79l-4.38-.9a3.87,3.87,0,0,1-.63-.21l-.15-.06.51-.69,1.27-1.71A24.25,24.25,0,0,0,651.9,65c.29-1.48.7-3,1.1-4.4l.26-1c.42-1.54.86-3.07,1.3-4.61l.78-2.74c0-.11.07-.22.1-.34a4.8,4.8,0,0,0,.26-1.25,1.7,1.7,0,0,0-.48-1.33c-.37-.26-1.07-.05-1.39.09a2.81,2.81,0,0,0-.77.6c-.1.09-.19.19-.29.27l-1.23,1.07c-.91.8-1.83,1.59-2.75,2.38a45.53,45.53,0,0,0-7.62,8.41,54.25,54.25,0,0,0-6.07,10.21,11.44,11.44,0,0,1-5.34,5.76c-2.65,1.4-5.32,3-8,4.7a24.9,24.9,0,0,0-7.54,7.75,11.82,11.82,0,0,0-1.06,11.27c.61,1.44,1.2,2.92,1.76,4.4a5,5,0,0,1,.34,3.63L614,111.07c-1,.89-2,1.81-2.93,2.74a18.85,18.85,0,0,0-5.25,7.9,11.46,11.46,0,0,1-2.85,4.57l-3.68,3.79c-2.27,2.35-4.62,4.78-7,7.12a13,13,0,0,1-9.2,4.21c-.54,0-1.08,0-1.59.08s-1,.07-1.57.08a8.63,8.63,0,0,1-1.2-.08l-.46,0,1.56-15.83a16.39,16.39,0,0,0,6.4-9.63,13,13,0,0,0-1.7-10.77,17.43,17.43,0,0,0-5.83-5.35,1.06,1.06,0,0,0-.63-.06.5.5,0,0,1-.17,0,.2.2,0,0,0-.15.06l-.17.14a1.08,1.08,0,0,0-.31.33l-.43.86c-.63,1.27-1.28,2.58-1.87,3.89a19,19,0,0,1-2.85,4.64,18,18,0,0,0-1.87,2.6,9,9,0,0,0,1.77,11.51l1.14,1.11.44.43c0,.12,0,.23,0,.34a6,6,0,0,1-.1.69,62.79,62.79,0,0,0-1.8,16,11.72,11.72,0,0,1-.94,4.79c-.32.78-.63,1.57-1,2.36-.42,1.07-.86,2.18-1.32,3.26l-.81,1.93A155.71,155.71,0,0,1,559,173a21.15,21.15,0,0,1-4.24,5.58L550,182.76c-2.6,2.27-5.3,4.61-8,6.89-1.16,1-2.4,1.93-3.6,2.84l-.79.59a3.23,3.23,0,0,1-1.21.69,33,33,0,0,0-6.05,1.88l-1.49.56a9.35,9.35,0,0,1-6.81.18l-.1,0c-.34-.13-.56-.21-.6-.59,3.05-1.27,5.34-3.58,7.56-5.81.82-.83,1.64-1.64,2.43-2.4a18.78,18.78,0,0,1,6.54-4.18c5.82-2.15,10.07-6.28,13-12.62A21,21,0,0,0,552,155.45a20.38,20.38,0,0,1-.89-7.46,15.94,15.94,0,0,0-.72-6.06,9.41,9.41,0,0,1,.43-7c.48-1,1-2.18,1.69-3.57a10.61,10.61,0,0,0-3.12-13.26,33.74,33.74,0,0,0-3-2.14,30.9,30.9,0,0,0-10-4.06c-4.18-.86-8-1.58-11.65-2.22-4-.7-6.85-2-9.14-4.07a9.56,9.56,0,0,0-5.64-2.3c-4.49-.53-8.87.46-13.78,3.1a44.94,44.94,0,0,0-8.63,6.53,5.38,5.38,0,0,1-.8.55,1.19,1.19,0,0,0-.15.09l.17-.35c.26-.53.46-.94.62-1.37l.76-1.86c.67-1.64,1.37-3.32,1.88-5a10.19,10.19,0,0,0-1.58-9.44A26.28,26.28,0,0,0,485,91.76c-1.11-1-2.32-1.91-3.49-2.8l-1.68-1.29c-.36-.29-.7-.59-1.07-.9l-.39-.33q.14-.25.24-.48a11.88,11.88,0,0,1,.61-1.08A165.07,165.07,0,0,0,490,66.12a24.92,24.92,0,0,0,2-5.75,25.08,25.08,0,0,1,1.18-4,8.17,8.17,0,0,0,.42-4.5,28.94,28.94,0,0,1-.38-3.88,2.71,2.71,0,0,1,.21-.9l.11-.33a23.06,23.06,0,0,1,5.77,1.45,11.38,11.38,0,0,0,7.87.21,29.33,29.33,0,0,1,3.06-.7,31.73,31.73,0,0,0,11.57-4.45,47.22,47.22,0,0,0,17.87-20.75c1.41-3.18,3.05-6.33,4.65-9.36l.64-1.23a27.24,27.24,0,0,1,1.51-2.42c.35-.51.71-1,1-1.57a1.46,1.46,0,0,0,.17-1.42,1.52,1.52,0,0,0-1.28-.76,7.72,7.72,0,0,0-1,0h-.37a42.59,42.59,0,0,0-19.3,3.88c-.29.13-.59.24-.94.36l-.32.11a13.64,13.64,0,0,1,0-3.38c0-.48.08-1,.1-1.49a12.31,12.31,0,0,1,.2-1.7,7.2,7.2,0,0,0,0-3.2.19.19,0,0,0-.12-.14,1.68,1.68,0,0,0-2,.5l-1.16,1.13c-1.23,1.19-2.51,2.43-3.68,3.72a32.62,32.62,0,0,1-5.65,5,121.68,121.68,0,0,0-10.61,8.56l-.06.06a45,45,0,0,0-3.94,3.91,26.83,26.83,0,0,0-6.85,18.48c0,.44,0,.89,0,1.2v.2l-1.38,1.41a36,36,0,0,0-2.75,3c-1.88,2.38-3.67,4.89-5.41,7.31l-.53.75a13.47,13.47,0,0,0-1.62,2.76,38.55,38.55,0,0,0-3.27,11.16A13.64,13.64,0,0,1,472,77.61a4.19,4.19,0,0,1-.64.51l-.26.19-.21-.69-.55-1.74c-.2-.59-.38-1.18-.57-1.77-.5-1.56-1-3.17-1.62-4.73a8.61,8.61,0,0,0-1.82-3,20.17,20.17,0,0,0-12.66-6.17c-5.13-.43-10.23.82-16.51,4.08a44.62,44.62,0,0,0-9.15,7l-.69.61-.91.83c-.79.72-1.6,1.46-2.42,2.15a6.44,6.44,0,0,1-5.45,1.6,17.26,17.26,0,0,0-1.85-.18A6.16,6.16,0,0,0,411.94,78a16.06,16.06,0,0,0-3.35,4.13,41.5,41.5,0,0,0-2.19,4.52A11.43,11.43,0,0,1,401,92.72l-.29.16c-1,.58-2.11,1.17-3.19,1.69a10.16,10.16,0,0,0-4.28,4,15.18,15.18,0,0,0-2.22,6.52,28.42,28.42,0,0,0,.22,7.14A34.64,34.64,0,0,0,395,122.64c.05.1.12.21.18.31a1.62,1.62,0,0,1,.33,1.07,8.9,8.9,0,0,1-7.11-4.28,26.79,26.79,0,0,1-1.89-3.71,19.63,19.63,0,0,0-9.57-10.64l-1.2-.6c-.61-.31-1.24-.63-1.87-.92a81.66,81.66,0,0,1-9.26-5,23.92,23.92,0,0,0-3.29-1.73,2.73,2.73,0,0,0-2.18-.14,2.51,2.51,0,0,0-1.31,1.53,23.58,23.58,0,0,1-2.4,4.46l-.51.79c-.54.87-1.13,1.79-1.85,2.88a20.74,20.74,0,0,0-3.1,15.52,39.34,39.34,0,0,0,2.1,7.1,25.31,25.31,0,0,1,1.64,10.76c-.07.89-.09,1.79-.11,2.64a18.47,18.47,0,0,0,3.33,11.3c.78,1.11,1.67,2.15,2.53,3.16.38.45.76.89,1.13,1.35l1.46,1.74c1,1.22,2.06,2.47,3,3.75a11.83,11.83,0,0,1,2.48,9.46A16.75,16.75,0,0,0,370,185c.59,1,1.24,1.93,1.86,2.86.26.39.53.78.78,1.17-.11.4-.24.79-.37,1.18a27.43,27.43,0,0,0-.8,2.84c-.18.88-.27,1.8-.37,2.69-.06.57-.11,1.17-.2,1.75s-.25,1.24-.4,1.84l-.11.45a3,3,0,0,1-1.09,1.58c-1.71,1.42-1.74,1.81-.38,3.71a4.27,4.27,0,0,1,.26.44c0,.06.07.12.1.19a74.36,74.36,0,0,0-2.47,12.8l-.11.82a53.13,53.13,0,0,1-1.93,8.7c-.6,1.94-1.16,3.93-1.7,5.86-.26.91-.51,1.83-.78,2.74,0,.11-.05.21-.08.31a5.53,5.53,0,0,1-.31.92,36.44,36.44,0,0,1-5.9,8.3l-.85,1a.77.77,0,0,1-.68.28.92.92,0,0,1-.67-.58c-.15-.35-.29-.71-.42-1.06s-.28-.77-.45-1.15a1.11,1.11,0,0,0-.74-.63,1.06,1.06,0,0,0-.91.19,4.52,4.52,0,0,0-1.15,1.16,14.61,14.61,0,0,0-1.32,2.62,24.23,24.23,0,0,1-3,5.76,40.32,40.32,0,0,0-2.1,3.58l-.29.53a5.72,5.72,0,0,0-.69,2.89c.07,4.38-1,8.82-3.52,14.38a10.94,10.94,0,0,1-4.79,5.22c-4.5,2.51-9.95,5.24-16.27,6.42a25.94,25.94,0,0,0-10.43,4.45,29.18,29.18,0,0,1-4.82,2.61c-.79.36-1.28.46-1.64.32s-.68-.56-1.1-1.51c-.15-.33-.27-.67-.39-1,0-.15-.1-.3-.16-.46s-.17-.46-.25-.69c-.18-.51-.36-1-.59-1.54a2.25,2.25,0,0,0-3.07-1.31,3,3,0,0,0-2.07,2.45c-.27,1.13-.56,2.26-.85,3.39s-.51,2-.75,3l-.13.52a26.61,26.61,0,0,0-.64,3.1,25.92,25.92,0,0,1-3.19,9.61c-1.3,2.28-2.79,4.94-4.11,7.68a24.8,24.8,0,0,1-3.72,5.65l-.45.5c-.65.75-1.33,1.52-2,2.3a38.75,38.75,0,0,1-10,8.29c-2.25,1.39-4.65,2.58-7,3.74-1.38.69-2.81,1.4-4.19,2.14a82,82,0,0,1-10.71,5,18.68,18.68,0,0,0-5.48,3.24,20.11,20.11,0,0,1-3.46,2.29c-2.62,1.37-6.09,3.14-9.68,4.78-1.6.74-3.31,1.34-5,1.93q-.71.24-1.41.51a2.52,2.52,0,0,1-.76.07h-.23l1-4,.62-.08c.55-.07,1.13-.15,1.72-.21a36.79,36.79,0,0,0,17-6.14c8.69-5.93,13.27-14.56,13.6-25.65,0-.41,0-.83,0-1.24a16.38,16.38,0,0,1,.57-5,1.22,1.22,0,0,0,0-.46v-.13a.92.92,0,0,0-.35-.7,1.05,1.05,0,0,0-.83-.21,4.45,4.45,0,0,0-.79.23,20,20,0,0,0-7.43,4.56,1.8,1.8,0,0,1-.51.33l-.13.06-1-1.14a.22.22,0,0,0-.24-.05l-.65.23a9.6,9.6,0,0,0-1.36.53c-.78.4-1.57.83-2.33,1.24-1,.54-2,1.09-3,1.59a35.64,35.64,0,0,0-9.78,7.61c-5.12,5.33-7.23,11.18-6.45,17.88a13.05,13.05,0,0,1,0,2.59,2.8,2.8,0,0,1-2.3,2.8,16.38,16.38,0,0,0-5.74,2.78c-.73.54-1.4,1.16-2.06,1.75-.43.4-.88.81-1.33,1.19-1.67,1.39-3.38,2.78-5,4.14L201.08,364c-1.85,1-3.73,2-5.53,3-3.57,1.94-7.24,4-11,5.67-2.13,1-4.25,2-6.3,3.06l-1.29.64a55,55,0,0,1-9.69,4c-1.24.35-2.48.78-3.68,1.2l-.84.29-3.58,1.25c-7,2.44-14.19,5-21.46,6.89-3.49.93-7.19,1.83-11,2.69-8.84,2-16.67,3.72-23.92,5.28-3,.65-6.31,1.32-9.57,1.72a116.47,116.47,0,0,0-17.36,3.23A88.36,88.36,0,0,1,64,405.27c-1.24.16-2.46.39-3.64.66-7.85,1.82-15.45,4.76-22.8,7.6l-2.66,1a6.61,6.61,0,0,0-.76.36,5.86,5.86,0,0,1-.67.32l-1.51.62c-1.34.55-2.72,1.13-4.12,1.56-1.55.49-3.17.89-4.73,1.28l-2.39.61-2,.52c-1.85.48-3.77,1-5.63,1.54-2.9.89-5.82,1.86-8.64,2.8l-1.89.62a13,13,0,0,0-1.32.55l-.52.23A.21.21,0,0,0,.64,425.7ZM376.22,240.48c4.82-2.56,8.84-4.7,13-6.86.94-.49,1.92-.9,2.95-1.32l1.35-.57a28.75,28.75,0,0,0,6.56,3.28c.7.27,1.43.56,2.14.86,1.41.6,2.79,1.35,4.12,2.08l1.47.79a1,1,0,0,1,.28.3l.09.11c-3.77,1.9-6.86,2.66-10,2.46a21,21,0,0,0-6.08.33l-1.21.28c-.86.21-1.75.42-2.63.56l-.69.12a23.11,23.11,0,0,1-4,.46,41.85,41.85,0,0,0-9.66,1.36l-.59.14a10,10,0,0,1-2.49.41l.06-.13a2.8,2.8,0,0,1,.31-.58A14.25,14.25,0,0,1,376.22,240.48Zm10.89-15.71a17.53,17.53,0,0,0-5.39,2.84c-1.25.86-2.57,1.78-4,2.59a17.08,17.08,0,0,1-4.65,1.87c.11-.4.21-.76.3-1.11.24-.86.44-1.61.59-2.35l0-.22a41.55,41.55,0,0,0,.69-4.47c.13-1.74.2-3.51.26-5.22,0-1,.08-2,.13-2.94a27.16,27.16,0,0,1,1.21-6.86l.34.09a3.6,3.6,0,0,1,.91.29,12.94,12.94,0,0,1,5.63,5.9c.53,1.08,1,2.2,1.51,3.28.22.5.45,1,.68,1.5l2,4.46a.22.22,0,0,1-.07.09C387.29,224.62,387.19,224.75,387.11,224.77ZM640.55,172a18.67,18.67,0,0,1-6.07,4.4c-2,1-4,2-6,3l-1.53.74c-.63.31-1.3.57-1.92.82a10.87,10.87,0,0,1-7.34.39c-1.4-.43-2.84-.83-4.22-1.22-2.1-.6-4.28-1.22-6.38-1.93a27.46,27.46,0,0,0-16.71-.48A37.56,37.56,0,0,1,579,179.2a34.83,34.83,0,0,0-12.51,1.92l-.49.17a11.58,11.58,0,0,1-3,.75l.82-1.82c.65-1.46,1.27-2.84,1.9-4.19a29.38,29.38,0,0,0,2.39-7.29,13,13,0,0,1,2.42-5.67,20.12,20.12,0,0,0,2.89-5.95,34.16,34.16,0,0,1,1.39-3.43q.33-.7.63-1.41A3.85,3.85,0,0,1,578,150.1c1.35-.42,2.69-.87,4-1.31s3-1,4.5-1.45a38.41,38.41,0,0,0,6.88-2.72,22.5,22.5,0,0,0,8.75-7.93,43.14,43.14,0,0,1,3.52-4.69l.94-1.14a9.16,9.16,0,0,1,4-2.74l1.73-.65a35.16,35.16,0,0,0,8.94-4.56,11.31,11.31,0,0,1,1.37-.83c.21-.11.43-.22.65-.35l.2.15a2.23,2.23,0,0,1,.57.52,9.11,9.11,0,0,0,4.66,3.48,40.45,40.45,0,0,0,15.52,2.92c.88,0,1.77-.06,2.63-.11s1.58-.1,2.37-.11c2.44,0,4.49-.06,6.57,0a17.27,17.27,0,0,1,8,2.09,14.88,14.88,0,0,0,8,1.89,6.26,6.26,0,0,1,.76,0l.09,0,.06,0c.18.21.09.39-.15.72l-.09.13a12.52,12.52,0,0,0-2.12,5.71,7.83,7.83,0,0,1-.8,2.69c-1.53,3-3.13,6-4.67,8.86l-1.36,2.54a6.77,6.77,0,0,1-.54.86c-.64.78-1.26,1.56-1.89,2.34-1.76,2.19-3.58,4.45-5.43,6.62a14.7,14.7,0,0,1-6,4c-1.49.6-3,1.25-4.45,1.88l-.89.38A9.77,9.77,0,0,0,640.55,172ZM375.09,349.61l0,.47a23.81,23.81,0,0,1-6.91-.94,23.18,23.18,0,0,0-10.49-.85,9.8,9.8,0,0,1-6-1,42.6,42.6,0,0,0-9.94-3.55,22.74,22.74,0,0,1-7.45-3.67c-2-1.3-3.94-2.67-5.85-4l-1.74-1.22a5.35,5.35,0,0,1-.64-.55l-.14-.13h0a.84.84,0,0,1,.19-.15c.19,0,.4-.06.61-.09l.41-.05a82.21,82.21,0,0,1,15.42-.9,22.64,22.64,0,0,0,11.57-2.48,9.75,9.75,0,0,1,3.95-1.09,20.88,20.88,0,0,0,6.64-1.81l.51-.21c.48-.2,1-.4,1.44-.65a34.4,34.4,0,0,1,9.22-2.93l1.26-.28a9,9,0,0,1,6.21.56,7.46,7.46,0,0,1-1.29,2.81l-.28.44c-.47.76-1,1.52-1.44,2.28-.64,1-1.3,2-1.93,3.07a29.92,29.92,0,0,0-3.66,10.73,13,13,0,0,0,.15,4.79h0A9.59,9.59,0,0,1,375.09,349.61Z" fill="#e69c6f"/></svg>