<svg xmlns="http://www.w3.org/2000/svg" xmlns:xlink="http://www.w3.org/1999/xlink" width="1920" height="482.46" viewBox="0 0 1920 482.46"><defs><clipPath id="a"><rect y="-593.48" width="1920" height="1080" fill="none"/></clipPath><clipPath id="b"><rect x="-833.17" y="251.58" width="3203.4" height="490.54" transform="translate(86.5 -113.35) rotate(8.94)" fill="none"/></clipPath><clipPath id="c"><rect x="-1235.08" y="283.48" width="3203.4" height="490.54" transform="translate(481.27 -104.37) rotate(45)" fill="none"/></clipPath><clipPath id="d"><rect x="89.26" y="222.83" width="3203.4" height="490.54" transform="translate(-18.69 73.68) rotate(-2.48)" fill="none"/></clipPath></defs><g clip-path="url(#a)"><g clip-path="url(#b)"><path d="M2190.63,959.44c-14.54-11.5-27.05-25-40-38.14-19.76-20.08-42.36-36.91-62.82-56.21-11.64-11-22.65-22.66-35.57-32.25-12.25-9.09-25.84-16.2-39.11-23.61-18.59-10.36-35.62-21-50.34-36.48-14.9-15.69-29.23-31.68-48.38-42.32-20.41-11.34-43.23-17.56-66-22-9.89-1.94-18.82-2.4-28.63-2.76-9.57-.35-18.68-7.17-26.62-11.9-5.32-3.17-11.8-4.2-16.76-8.14s-7.41-8.14-13.68-10.51c-16.82-6.31-35-13.1-52.9-15.38a141.73,141.73,0,0,1-60.49-22.55c-7.67-5.07-21-11.43-25.19-19.74-4.61,1.05-9.36,4.88-13.82,7.13a81.46,81.46,0,0,1-26.22,8c-11,1.39-22.57,2.08-33,6.06-6.9,2.62-7.06,7.27-12,11.71-8.23,7.4-25,8.25-35.41,11.37-31.44,9.39-60.2,21.9-90.06,35.22-14.61,6.53-34,16.68-50.77,15.43-11.32-.85-15.58-7.37-24.36-13.54-10.52-7.39-22.9-13.77-34.1-20.24-13.09-7.55-25.53-16.23-38.72-23.51-16.77-9.27-33.1-17.94-48.71-29.17-13.05-9.39-23-21.38-37-29.64-10.49-6.17-18.24-12.72-25.22-22.67-16.8-24-43-24.26-67.81-36.21-11.15-5.37-21.39-13.76-33.43-16.7-4.22-1-7.13-.39-11.17-.07-8.58.7-16.61-1.81-25.34-2.24-16.51-.79-31.29,9.46-47.33,8.79C956,526.62,944,519,932.31,513,916,504.53,901,493.82,884.44,486c-9.72-4.64-19.21-8.57-28.41-14.17-14.16-8.61-27.07-11.71-43-14.44-12.24-2.08-21.29-11.31-31.23-18.14-9.69-6.67-19.45-13.59-28.78-20.74-18.29-14-32.4-33.39-51-47.32-7.4-5.53-14.73-5.83-23.62-3.83A103.48,103.48,0,0,0,642.26,383c-3.2,2.22-8.23,8.58-11.7,9.6-10,2.95-20.48-16.82-26.64-22.06-7.46-6.35-11.82-15.2-18.72-21.57-3.62-3.34-8.18-3.61-12.78-6-9-4.68-15-14.19-22.28-21-21.64-20.17-42.67-43.88-67-60.84-29-20.23-62-1.67-93.22,2.92-10.25,1.5-19.53,5.95-29.52,8.79a87.33,87.33,0,0,1-42.54,1.73c-14.25-3.07-27.61-9.82-42.13-11.64-8.91-1.12-17.14.54-25.85,2.17a140.53,140.53,0,0,1-16.49,2.25C215.09,268.59,200,272,182.9,279.56,132.35,302,84.36,331.29,28.6,338.19,9,340.62-13.73,341.41-30,354.16c-11.91,9.37-19.62,18.08-24.74,32-7,19.12-20.57,27-32.85,41.62-11.29,13.45-32.1,28.43-43.85,39.87-14.58,14.2-29,28.71-43.22,43.26-16.62,17.05-28.15,37.75-46.18,53-16.33,13.81-33.17,27.72-52.47,37.28-13.65,6.76-28.12,9.38-42.62,13.52a356.37,356.37,0,0,0-51.94,19c-6.14,2.85-17.62,11.43-26.14,10.48,23.16,4.68,44.45,17.41,66.2,26.55,20.91,8.78,42.95,15.13,62.65,26.59,14.31,8.32,27.42,15,44,16.85,43.89,4.91,87.06,15.66,130.69,22.79,21.09,3.43,40.61,10.37,61.13,15.78,21.08,5.55,43.08,5.85,64.65,8.1,32.14,3.36,63.72,10.51,95.84,14,22.66,2.44,44.46-.41,67-1.31,27.13-1.09,54.51,1.79,81.62,3.06,21.5,1,42.46,2.3,63.7,6.09,41.23,7.39,81.09,23.73,121.22,35.62,25.52,7.56,51.1,15.17,77.09,21,57.17,12.84,113.5,12.18,171.67,14.27,45.19,1.63,90.24,9.25,135.07,14.44,46.13,5.34,91.35,5.83,137.73,7.37,41.89,1.39,82,6.26,123.55,11,46.08,5.21,92.19,6.66,138.42,9.84a698,698,0,0,1,117.63,18c37.75,9,75.3,15.28,113.61,21.22,34.9,5.39,69.75,11.89,104.84,15.93,36.11,4.17,72.27,5,108.49,7.59,59.92,4.36,118.37,17.68,178,24.33,52.91,5.91,108,13,161.16,10,27.71-1.56,55.23-4.42,83-4.52,18-.08,36.54,2,54.41-.59,14.08-2,29.09-3.56,42.86-6.81,3-.71,5.06-.71,6.45-3.48C2210.52,970.33,2199.43,966.39,2190.63,959.44Z" fill="#e69c6f"/></g><g clip-path="url(#c)"><path d="M1243.88,1739.87c-5-17.85-7.18-36.11-9.91-54.39-4.15-27.87-12.51-54.77-17.69-82.42-2.94-15.73-5-31.66-9.77-47-4.55-14.56-11.35-28.31-17.71-42.1-8.93-19.33-16.46-37.92-19.22-59.13-2.81-21.46-5-42.82-14.2-62.7-9.82-21.18-24.6-39.64-40.4-56.66-6.86-7.39-13.8-13-21.52-19.08-7.53-5.92-10.88-16.79-14.51-25.3-2.44-5.69-7.07-10.33-8.76-16.44s-1.19-10.94-4.87-16.55c-9.87-15-20.55-31.17-33.71-43.57A141.69,141.69,0,0,1,996,1160.68c-3.22-8.62-10.26-21.61-8.74-30.79-4.35-1.86-10.44-1.56-15.37-2.37a81.42,81.42,0,0,1-25.93-8.94c-9.71-5.35-19.47-11.6-30.26-14.54-7.13-1.94-10,1.72-16.61,2.4-11,1.13-25-8-35.32-11.66-30.94-10.92-61.55-17.74-93.53-24.54-15.66-3.33-37.3-6.53-50.13-17.42-8.65-7.35-8.25-15.13-11.72-25.29-4.15-12.16-10.4-24.61-15.64-36.43-6.14-13.81-11.09-28.15-17.47-41.8-8.1-17.36-16.19-34-22.2-52.25-5-15.28-6-30.82-12.49-45.77-4.85-11.17-7.26-21-7-33.17.52-29.26-20.47-44.92-33.5-69.19-5.85-10.9-9.19-23.72-17.19-33.18-2.81-3.31-5.54-4.52-9-6.63-7.35-4.49-12.36-11.25-19.16-16.73-12.89-10.36-30.87-10.78-43.45-20.76-10.59-8.42-15.83-21.68-21.71-33.43-8.21-16.4-14.08-33.92-22.81-50-5.12-9.47-10.48-18.22-14.62-28.17-6.38-15.3-15-25.4-26.28-37-8.66-8.88-10.55-21.67-14.56-33.05-3.91-11.1-7.73-22.43-11.06-33.71-6.53-22.1-6.54-46.07-13.37-68.26-2.72-8.83-8.46-13.39-16.83-17a103.48,103.48,0,0,0-38.46-8.56c-3.89-.09-11.7,2.09-15.11.86-9.85-3.52-6.65-25.64-8.54-33.51-2.3-9.52-.61-19.24-2.44-28.46-.95-4.82-4.48-7.72-6.79-12.38-4.5-9.07-3.73-20.27-5.64-30.11-5.62-29-8.66-60.58-18.32-88.59-11.52-33.42-49.1-37.83-77.07-52.53-9.17-4.82-19.29-6.68-29-10.27a87.33,87.33,0,0,1-35.41-23.64C123.48,72.92,116.66,59.6,106,49.58c-6.54-6.15-14.17-9.66-22.17-13.46a140.54,140.54,0,0,1-14.65-7.9c-15.56-9.78-29.74-15.94-48-19.87C-32.94-3.25-89-7.84-138.11-35.09c-17.31-9.59-36.11-22.32-56.74-21.56-15.15.55-26.5,3.07-38.87,11.34C-250.64-34-266.24-35.61-284.78-31c-17,4.23-42.68,4.09-58.92,6.42-20.14,2.9-40.35,6.13-60.4,9.53-23.46,4-45,13.94-68.53,15.66C-494,2.15-515.77,3.48-537-.15c-15-2.57-28.26-9-42.42-14.16A354.52,354.52,0,0,0-632.59-29.5c-6.65-1.32-21-1.14-27.31-6.92C-643.92-19-634.22,3.82-622,24c11.73,19.41,25.81,37.51,35,58.37,6.67,15.16,13.34,28.26,25.67,39.54,32.58,29.81,61.15,63.91,92.22,95.36,15,15.19,26.73,32.29,40.13,48.75,13.77,16.89,31.38,30.08,47.49,44.59,24,21.65,45.33,46,69.25,67.72,16.88,15.32,36.18,25.85,54.95,38.4,22.57,15.09,43,33.54,64.18,50.53,16.78,13.47,33,26.85,47.9,42.42,29,30.24,51.59,66.91,77,100.15C-52,631-35.83,652.19-18.26,672.21c38.66,44,84.59,76.66,130.38,112.59,35.57,27.92,67.5,60.6,100.69,91.19,34.14,31.47,70.41,58.49,107,87,33,25.79,62.6,53.34,93.42,81.6,34.18,31.34,70.6,59.66,106.11,89.44a698.82,698.82,0,0,1,84.47,83.81c25.24,29.46,51.87,56.69,79.35,84,25,24.9,49.38,50.67,75.37,74.59,26.73,24.63,55.51,46.55,83.23,70,45.87,38.8,85.28,84,129.54,124.45,39.29,35.92,79.64,74.06,124.39,103,23.31,15,47.24,28.94,69.77,45.21,14.61,10.55,28.35,23.13,44.32,31.56,12.58,6.65,25.62,14.25,38.66,19.72,2.82,1.18,4.51,2.41,7.26,1C1253.54,1760.38,1246.89,1750.67,1243.88,1739.87Z" fill="#ffebdc"/></g><g clip-path="url(#d)"><path d="M3176.49,640c-16.53-8.39-31.46-19.11-46.78-29.45-23.34-15.78-48.83-27.8-72.7-42.66-13.59-8.47-26.7-17.74-41.25-24.57-13.81-6.49-28.54-10.77-43-15.4-20.28-6.48-39.07-13.5-56.57-25.79-17.72-12.44-34.93-25.27-55.81-31.91-22.25-7.08-45.85-8.66-69.06-8.52-10.08.06-18.93,1.38-28.61,3-9.45,1.55-19.73-3.33-28.46-6.4-5.84-2.05-12.39-1.77-18-4.66s-8.87-6.51-15.48-7.59c-17.74-2.86-36.87-5.92-54.9-4.6a141.91,141.91,0,0,1-63.76-10.13c-8.52-3.45-22.86-7-28.6-14.37-4.3,1.95-8.21,6.64-12.13,9.73a81.35,81.35,0,0,1-24.12,13.07c-10.5,3.54-21.71,6.51-31.17,12.48-6.24,3.94-5.48,8.53-9.45,13.86-6.6,8.88-22.84,13-32.46,18.15-29,15.43-54.68,33.39-81.3,52.35-13,9.3-30,23.08-46.72,25.18-11.26,1.41-16.73-4.14-26.56-8.44-11.77-5.17-25.17-9-37.42-13.1-14.33-4.8-28.24-10.85-42.61-15.38-18.28-5.76-36-11-53.52-18.94-14.66-6.62-26.76-16.41-42.18-21.73-11.51-4-20.4-8.85-29.21-17.23-21.21-20.15-46.94-15.26-73.63-22.07-12-3-23.69-9.25-36.08-9.74-4.33-.17-7.07,1-11,2.14-8.28,2.38-16.64,1.51-25.28,2.82-16.35,2.49-28.81,15.47-44.66,18-13.37,2.12-26.68-3-39.32-6.59-17.63-5-34.51-12.54-52.27-17-10.44-2.62-20.52-4.59-30.65-8.26-15.58-5.64-28.85-6.12-45-5.64-12.4.38-23.1-6.87-34.19-11.6-10.83-4.62-21.76-9.47-32.33-14.63-20.7-10.12-38.37-26.32-59.35-36.28-8.34-4-15.58-2.81-23.9.91a103.4,103.4,0,0,0-32.31,22.56c-2.69,2.81-6.36,10-9.57,11.72-9.26,4.88-23.4-12.43-30.48-16.35-8.57-4.74-14.59-12.55-22.62-17.44-4.2-2.55-8.73-1.91-13.71-3.36-9.73-2.81-17.47-10.94-26-16.19-25.2-15.48-50.51-34.56-77.68-46.37-32.42-14.09-61.07,10.63-90.8,21.31-9.75,3.5-18,9.71-27.2,14.46a87.33,87.33,0,0,1-41.36,10.12c-14.56-.18-29-4.16-43.6-3.07-8.95.67-16.69,3.92-24.9,7.25a140.44,140.44,0,0,1-15.72,5.46c-17.72,4.85-31.85,11.14-47.1,22-45.1,32-86.36,70.22-139.64,88-18.77,6.27-40.86,11.53-54.24,27.25-9.83,11.53-15.66,21.6-17.91,36.31-3.09,20.12-14.83,30.52-24,47.3-8.4,15.42-25.83,34.22-35.09,47.76-11.47,16.8-22.75,33.89-33.79,51-12.92,20-20.13,42.58-34.78,61.1-13.27,16.77-27,33.74-44,46.94-12.05,9.32-25.71,14.75-39.11,21.69a354.45,354.45,0,0,0-47.14,28.93c-5.46,4-15,14.69-23.55,15.45,23.63,0,47,8.26,70.15,12.91,22.23,4.47,45.09,6.33,66.67,13.66,15.68,5.33,29.85,9.27,46.49,7.81,44-3.88,88.43-1.89,132.61-3.54,21.36-.81,41.86,2.12,63.05,3.37,21.76,1.27,43.38-2.8,65-4.86,32.17-3.07,64.54-2.32,96.71-5.28,22.7-2.1,43.5-9.21,65.44-14.55,26.38-6.44,53.79-9,80.61-13.16,21.28-3.27,42.08-6.16,63.65-6.64,41.87-.92,84.18,7.2,125.87,10.91,26.52,2.36,53.09,4.76,79.72,5.33,58.58,1.27,113.67-10.53,171.1-20,44.62-7.35,90.28-8.8,135.26-12.59,46.27-3.9,90.69-12.37,136.46-20,41.34-6.93,81.62-10.1,123.28-13.71,46.2-4,91.68-11.73,137.63-17.77A699.8,699.8,0,0,1,2359.17,759c38.77,1.3,76.84.08,115.57-1.69,35.27-1.63,70.72-2.15,105.91-5.14,36.22-3.06,71.83-9.46,107.85-14,59.59-7.58,119.53-6.09,179.27-11.37,53-4.69,108.41-8.65,159.95-22.1,26.85-7,53.25-15.26,80.47-20.87,17.66-3.64,36.22-5.28,53.23-11.34,13.39-4.78,27.8-9.26,40.65-15.17,2.78-1.28,4.83-1.69,5.64-4.68C3198.14,646.73,3186.49,645.07,3176.49,640Z" fill="#ffebdc"/></g></g></svg>